/* XPM */
static char *_096ad0362a84131976fdd85492ced40xSJFHmk3M8hVisgr[] = {
/* columns rows colors chars-per-pixel */
"64 64 215 2 ",
"   c #020000",
".  c #0C0000",
"X  c #050D0F",
"o  c #120000",
"O  c #1D0000",
"+  c #1B0A05",
"@  c #141106",
"#  c #091718",
"$  c #2E0100",
"%  c #220A07",
"&  c #340102",
"*  c #3A0000",
"=  c #2C170F",
"-  c #132108",
";  c #312812",
":  c #1E2327",
">  c #282827",
",  c #2C3C3C",
"<  c #353535",
"1  c #550205",
"2  c #4A1B1C",
"3  c #452526",
"4  c #4A3636",
"5  c #6E2C27",
"6  c #653731",
"7  c #733636",
"8  c #354117",
"9  c #2E6809",
"0  c #326B06",
"q  c #346D0C",
"w  c #387007",
"e  c #37710E",
"r  c #39720E",
"t  c #366E12",
"y  c #386F16",
"u  c #376E19",
"i  c #377111",
"p  c #3C7414",
"a  c #3F7815",
"s  c #3D761A",
"d  c #3F7819",
"f  c #3F7620",
"g  c #417615",
"h  c #427B16",
"j  c #41761B",
"k  c #437C1B",
"l  c #487E1C",
"z  c #4E443D",
"x  c #467D21",
"c  c #497E23",
"v  c #477F28",
"b  c #4A7E29",
"n  c #384445",
"m  c #3C4444",
"M  c #3C5152",
"N  c #424C4D",
"B  c #584A47",
"V  c #415455",
"C  c #585555",
"Z  c #6E5150",
"A  c #5B6768",
"S  c #676C6D",
"D  c #6C726E",
"F  c #6A7574",
"G  c #6A7677",
"H  c #777B7B",
"J  c #973435",
"K  c #AF3A3A",
"L  c #B73F3A",
"P  c #C62D35",
"I  c #C53B3D",
"U  c #BF413D",
"Y  c #8C4C4D",
"T  c #865E5B",
"R  c #BB4D4B",
"E  c #BE5551",
"W  c #AB665F",
"Q  c #856762",
"!  c #857373",
"~  c #847A7A",
"^  c #B77065",
"/  c #BD737A",
"(  c #C74948",
")  c #C7524D",
"_  c #C75555",
"`  c #C55955",
"'  c #C55B59",
"]  c #CA5C5A",
"[  c #D65757",
"{  c #E94A49",
"}  c #CF6663",
"|  c #D36563",
" . c #D46B67",
".. c #DB6D6B",
"X. c #CF736D",
"o. c #D7746F",
"O. c #DA726D",
"+. c #CB767B",
"@. c #DD7473",
"#. c #DB7A74",
"$. c #E56969",
"%. c #E4746E",
"&. c #F4726D",
"*. c #E47876",
"=. c #E37D79",
"-. c #EB7D7C",
";. c #FC7174",
":. c #468017",
">. c #4A8317",
",. c #47801D",
"<. c #4A831D",
"1. c #4E891E",
"2. c #528B1F",
"3. c #478021",
"4. c #4B8423",
"5. c #4F8824",
"6. c #4E8529",
"7. c #4F8829",
"8. c #508725",
"9. c #528B25",
"0. c #51862B",
"q. c #548C2B",
"w. c #598E2D",
"e. c #569126",
"r. c #5A9426",
"t. c #5E9926",
"y. c #57902B",
"u. c #5A942C",
"i. c #5E992C",
"p. c #568D32",
"a. c #578A36",
"s. c #5A8E33",
"d. c #579031",
"f. c #5C9433",
"g. c #5F9933",
"h. c #5E9539",
"j. c #5F9838",
"k. c #61972F",
"l. c #619C2D",
"z. c #619635",
"x. c #629B34",
"c. c #689F37",
"v. c #61953A",
"b. c #649C3A",
"n. c #689E3B",
"m. c #64A02E",
"M. c #65A134",
"N. c #6AA336",
"B. c #67A03B",
"V. c #6AA33C",
"C. c #6EA93B",
"Z. c #71AD3F",
"A. c #5D8D40",
"S. c #679842",
"D. c #669D41",
"F. c #69A043",
"G. c #6CA442",
"H. c #6FA941",
"J. c #70A743",
"K. c #73AC44",
"L. c #73AB48",
"P. c #76AB4B",
"I. c #76B244",
"U. c #78B349",
"Y. c #7CAB54",
"T. c #74817C",
"R. c #7CA560",
"E. c #87AE62",
"W. c #E5837C",
"Q. c #E7867C",
"!. c #EC837E",
"~. c #798582",
"^. c #858788",
"/. c #968A8B",
"(. c #939798",
"). c #9EABA8",
"_. c #AEB2B2",
"`. c #ED8683",
"'. c #EC8B83",
"]. c #E88A85",
"[. c #F28681",
"{. c #F28A85",
"}. c #F98B87",
"|. c #F58C8B",
" X c #EB918B",
".X c #F4948C",
"XX c #FA938E",
"oX c #E59C95",
"OX c #F59690",
"+X c #FB9591",
"@X c #F69992",
"#X c #FC9B94",
"$X c #FE9E99",
"%X c #E8A299",
"&X c #F8A499",
"*X c #FEA39C",
"=X c #CEBBBE",
"-X c #E9AEAB",
";X c #FFA4A0",
":X c #FFACA3",
">X c #FFACAD",
",X c #FFB4AB",
"<X c #FFB6AA",
"1X c #FFBAB3",
"2X c #FAC1B8",
"3X c #C1CDD1",
"4X c #C5D1D2",
"5X c #D5D5D4",
"6X c #D7DAD8",
"7X c #F0CDC9",
"8X c #E6E1DE",
"9X c #E4DFE0",
"0X c #E4E3E2",
"qX c #FDEEEE",
"wX c #FFF9F7",
/* pixels */
"s.n.n.z.c b.c.9.w.x.a.a.j.4.B.V.g.v G.g.q.f.B.6.f.j.q.n.B.j.b J.u.0.h.G.c h.p.f.B.m.w.a.J.q.q.x.x.4.v.q.b.B.x.4.f.G.0.y.v.f.4.F.",
"l w.w.V.9.a c.l l k.0.s 4.l u.w.C.,.<.m.h 9.u.5.p :.9.f.u.C.p 0.u.j q.u.4.,.k 8.u.i.x.i g.q.g t.9.k 6.k y.y.M.u.r l.5.l g.9.g 4.",
"n.4.l 9.e.,.4.q.N.1.c y ,.g.,.l 2.e.,.5.y.x.:.4.q 9.x.,.,.y.q.:.9.i.u.j 4.r 9.e.,.5.e.<.x 6.m.e.j 3.p q.5.<.5.u.,.,.q.n.8.k g c ",
"n.l j h i.u.4.6.w.h k p u.i.a d 4.r.1.3.q.0.k j p x.9.p a y.u.4.4.e.<.4.k p V.5.p p i.u.,.6.r.k 0.j g B.:.p p g.x.c 4.q.p ,.p p.",
"U.9.q.p 1.g.0.y i 6.j.a g.M.d.7.a 9.i.,.f u p.d.p C.g.y.3.4.f.u.p k k f.6.p U.f.p.s 5.x.9.q g x D.3.x I.u.q.p 8.b.9.0 p 4.F.k 8.",
"y.b.4.p ,.:.f.u.d j.3.a M.9.b.k a 5.:.u.d.3.h.s 5.b.q.B.p a 4.:.u.4.7.f.0 d.j.y.b.p a >.1.d.k p.p.t g.i.u.f.p k :.9.f.s f.q.q C.",
"4.v.k 0.y.k V.4.f d a j.u.,.j.p f.5.<.V.d 3.s d M.5.4.j.p f.,.e.V.p ,.a l B.,.y.q.a x.h i.j.p k p 5.M.:.f.5.,.f.a M.y.p k p d.B.",
"h.q.p j.y.q.y.i k d V.9.i g.9.k g.5.g.5.e s 3.G.,.a f.4.0.b.,.M.4.i s <.G.k :.f.k y.b.,.g.,.a p 7.B.p 5.y.p j.f.4.u.p l p u.f.x ",
"w.,.p q.j c s 4.p M.d.a h 0.a a 5.,.k d 6.p B.q.k h a.i k 1.k j d 6.x B.1.k s 9.r 5.k 3.s j 4.4.B.<.k k 4.i q.p ,.s x j f.j.h q.",
"n.4.5.,.4.q.z.j k y.k q.H.q.4.7.4.5.q.d.a 4.q.s y.H.4.3.4.1.9.w.7.s 4.9.p f.H.5.,.4.5.0.f.4.s 5.4.g g.B.4.5.,.4.q.g.l a 5.:.6.G.",
"p.4.l b.u.9.V.g d.q.q p V.6.4.3.F.q.y.B.r f.4.i k C.:.6.4.C.l z.x.a g.,.u 5.C.d k q.L.l n.y.j f.s p u.N.4.j f.G.,.b.4.9.y.i u B.",
"v.0.0 j.q.g h k.6.v 4.i.h h.6.i u.5.d <.g.3.k 0.g.k j.j c f.l g 9.u.3.j d.y.4.h.y 7.r.g p u.u.x j u.9.0.q.t s.f.k p r.w.6.l u.u.",
"G.4.4.9.4.x.h 9.x.4.4.M.e.y.v 9.1.5.B.r r.f.4.4.x.y.f.a q.4.9.b.w u.y.8.8.x.f.y.x 5.>.y.u.r x.9.5.f.f.y.r.,.5.,.z.9.,.x.6.4.V.z.",
"4.g.x.u.k u.l.l 1.i.4.<.r.a g.M.i.p M.r.x e.i.h 9.9.:.i.l.r.g V.9.k r.x.g 9.<.2.g.t.q.j C.q.k r.i.a p.k r.m.u.,.1.N.5.,.i.q.g x.",
"q.e.9.C.9.a x.:.4.y.7.p :.5.u.9.V.,.,.j.,.9.y.7.a ,.q.f.y.V.p 2.u.k y.9.4.k h y.y.u.b.e u.q.l z.5.,.3.k 9.9.x.u.t z.9.,.t.5.j 5.",
"B.,.j 1.e.>.4.q.D.4.x q <.b.k :.5.e.,.6.r.g.k x q y.i.j l 9.9.:.0.x.u.a g p u.e.k 4.e.1.l q.b.q.p k p g.9.l >.u.4.l 9.x.1.s t 6.",
"V.k x p g.u.<.3.6.d 6.i j.x.a k <.t.9.6.4.,.,.3.s V.9.s k e.g.4.3.p.,.4.d p H.1.s p x.t.<.x q.s 6.s h C.,.g i x.x.,.x 4.s 6.s d.",
"K.f.y.p 6.i.4.s i 6.h.p i.b.j.8.a 9.i.k s a d.p.p C.x.f.5.k e.u.i d k j.7.a C.M.f.k <.i.9.q a 4.F.k :.Z.g.f.p 4.x.9.q p 6.F.j q.",
"4.z.4.g 4.h i.f.x h.p k B.<.b.g h <.:.g.p.4.d.q 5.b.5.B.e k <.<.x.3.5.d.9 u.y.5.b.i k :.1.b.k d.5.q B.9.q.y.i k :.y.j.k f.x i L.",
"q.b.k 0.f.,.N.k s p 3.b.9.5.x.i u.8.5.V.p j i 6.M.5.q.x.p j.,.u.N.i x p 9.j.4.y.q.k b.k M.f.e s s u.f.4.j.4.4.b.l B.0.p p x b.x.",
"v.q.i b.0.q.5.p k 4.B.4.q f.5.s j.5.y.1.p p 7.L.k (.X # : b.,.b.4.k d : # @ (.g.p f.f.,.u.,.s s f.x.r 5.q.p j.d.4.y.a k x v.q.j ",
"q.,.a 7.k v s 4.p B.q.:.,.5.a k 7.3.d s 4.p G.A , C T 7 Y N n N M n m Z T Q B , S 3.s 3.s k k 7.b.h 4.,.<.a 5.p 4.a ,.s f.f.a f.",
"b.4.q.4.9.y.j.p <.5.s q.K.5.4.0.0.5.f.f.p 4.F 3 2 W 2X,X,X6 $ $ & $ 6 :X<X7X^ 2 3 D x.0.b.6.k 7.,.s j.C.4.4.4.q.y.b.k k 5.k 4.L.",
"q.8.s b.i.,.b.h e.q.i d i.5.7.k B.9.<.n.k (.@ %X,X}..XOX!.1X*X$.%.+X<X|.-.#X*X>X%X; (.6.y.f.5.u.p p y.g.4.p j.B.g g.9.9.y.r u n.",
"D.8.q y.e.l g l.8.x 4.x.k f.3.i u.9.k l _.  &X<X'.+X#XW.{.&X>XO.O.;X!.&X!.+X#X X1X*X- ).k u.f.k k g.7.p.y.0 q.q.:.p u.w.k l n.s.",
"D.8.q.9.l c.l 8.z.6.,.l.f.e.<.e.1.4.V.k _.  W.{.$X@X X*X*X{.{.| | |.[.Q.!.!.XX*X!.-.  ).Y.g u.d.7.e.u.y.e.1.1.:.l.u.j k.9.4.h.x.",
"l x.B.l.h 9.N.4.3.b.8.h 5.k B.M.x.r k.^.= %X*X!.Q.@X*X&X].#X:XX.o.*XW.*X*X{.Q.Q.@.*X-X8 ^.E.a u.i.a y.a y.N.g.<.k N.9.k i.q.p f.",
"y.q.5.b.9.j u.3.q.y.8.p k q.y.5.V.4.c A . :X,X:X*...!.+XOX`.].} } ].&X XQ.+X{. .O.!.+X  S 5.5.i.4.,.k ,.u.5.j.i.p r.8.0.i.9.g x ",
"n.k j <.u.4.x e.m.h s t 7.g.k g 1.u.,.G + *X`.W.OXO.O.*XXX} W. .| XX#X@X| @X#X| ..|..Xo H 7.M.q.d p p g.1.a k g.5.k 5.B.4.j q 4.",
"G.3.,.g j.i.5.x :.k q.p i.x.,.:.:.u.e.F + &X[.#.OX.X'.'.!.].*XO. ..X*.@X].`..X.X X#X1X% G s 5.s p.k h K.5.k p i.M.7.d 3.h q.j u.",
"L.f.9.p ,.t.5.k s f.h.q i.N.b.5.a 5.u.H O '.*X:XXX#X@X*.|.$XXX .] W.W.'.;X#.].<X X..:X% G i d 7.B.k :.C.b.y.p a f.y.s a y.F.p y.",
"l f.,.,.5.p x.u.k q.q 4.B.h j.r 4.4.h F O *XO.-.*XOX'.*X;X@.'.O.| +X;X*X].!.+X.X .@.$Xo G b.s d.3.0 V.4.7.y.a 5.p u.g.s w.j i U.",
"f.j.a d.f.4.F.p s e 7.B.<.q.j.a j.9.e.F . }.%.%.o.`.{.#.OX=.} ] ] | =.+X*.`.W.@.XXXX}.@ F n.q h j j.y.7.j.k 7.b.l B.:.i i 6.B.q.",
"j.4.p j.5.5.4.l d 7.F.k w f.3.,.f.:.v.,.~ O -.XX@.`.$X|.=.' E R R R ' XX-.@.{.!.}.*X% H 0.h.k k x.f.i 6.q.t j.q.4.7.k h 4.M.5.v ",
"s.,.k ,.a <.l 4.p j.6.5.5.5.s 3.4.:.x k 4.F %  .;.( _ ] } _ _ ] ` ) ' @.) U ) ;.' ; F 5.4.k <.4.f.k q.4.4.l 4.p 4.k <.a y.9.l h.",
"v.4.5.5.y.u.B.p 7.5.a 3.I.1.,.q.y.0.j.x.e 0.~.& / 2X-XoXL ) ] ` ] ] _ K oX2X2X/ & T.g.7.G.4.x q.k a j.G.,.4.7.j.q.V.k 4.w.p k G.",
"s.q.i B.y.x s.,.d.9.p ,.9.y.7.s B.1.l f.l w.6Xm ^.4X3X=X+.( ( ` E ( ( +.=X3X3X^.n 6XB.p 5.f.9.y.p h q.y.9.e f.B.g 9.9.q.y.p p b.",
"G.4.e w.8.6.g f.q.k 4.V.,.h.4.a q.q.l g x.5X  0X!   . B wX] L ` ' I [ wXm o o ~ 0X  5X4.k 5.i.j k b.9.q.f.q q.9.5.h w.w.j 4.G.w.",
"j.9.u.9.j V.2.3.i.y.:.u.i.4.5.u.9.,.C.g w.6X  5X! & 1 B qX[ U E ` I [ qXz 1 * ~ 6X  5Xy.V.p y.u.9.4.f.9.9.9.e.k z.z.h u.w.6.w.b.",
"k x.x.x.,.4.N.,.,.m.7.s 9.a b.g.N.p q.M.A.5X  0X! . O 4 wX[ P [ _ P $.wX4 o . ! 8X  5Xe M.e.h u.i.a q.a u.M.M.1.g V.0.k l.w.i f.",
"x.4.,.x.e.g q.1.u.5.5.s k u.9.1.x.9.k 8.5.i._.> /.9X6X7X*.{ I ) [ J 2 -.7X6X0X/.> _.k.h 5.>.y.u.:.4.s 4.q.7.u.r.g 9.4.f.u.,.,.x ",
"b.h k k f.9.:.q.f.a s i 9.i.p a <.u.,.4.y.r.k H C D D B $ & R &.;.Y   % Z F F B H S.u.w.d 6.b.:.h p a b.<.p k i.0.x 9.b.k k e 6.",
"P.<.4.p u.b.8.s s 4.d.s n.M.,.4.<.r.u.4.f s 4.S.^.> < , M M 4 5 5 5 C V < < > ^.4.j u.l.q.p 3.d f.3.,.I.5.3.r u.M.q.p j k f.k q.",
"V.x.q.p :.y.8.4.s h.d.e g.x.b.5.r 1.q.5.4.d j.4.a M.l.g.x s A # # A 6.b.k ,.N.j.j.k p r.5.d x q.b.p 0.B.g.g.p h e.9.x s j.j.e j.",
"g j.k <.q.a n.u.k 4.q q.n.h j.e 5.7.d B.5.5.3.9 g.u.,.j.q q.R.5.F.x 5.,.0 B.5.4.j.q q.h e.B.p 7.k i G.:.y.5.h 5.e i.j.x 6.i d I.",
"j.g.a u.f.5.b.e a e u.b.k q.f.k j.5.u.g.e a i j.u.:.u.y.,.b.3.b.y.9 a a b.q.3.f.4.4.V.k B.5.q p ,.b.5.5.j.h y.b.,.M.a i i 6.B.7.",
"j.,.p j.3.,.,.k a f.B.a e y.k k f.,.4.3.3.d j.F.p r f.s 4.y.,.4.:.4.s b.b.s s q.r y.0.k 4.,.,.4.b.q.p ,.0.q f.6.3.,.,.k w.F.,.3.",
"f.4.3.,.l 7.4.,.p j.,.7.f.7.d 3.,.4.3.4.3.d j.d 9.g.7.j 3.,.4.4.3.,.x f.j q.u.5.k ,.k 9.,.,.g 6.y.k y.q.4.,.x ,.7.6.3.s y.5.,.b.",
"h.4.6.q.u.r.C.p q.5.e s I.5.6.7.g.q.j.b.e r.1.e ,.U.k 3.4.M.9.B.u.i d.,.i e.I.k 4.9.n.8.G.6.x q.a r b.G.k 4.q.j.y.H.l 4.6.p p J.",
"w.0.y b.w.p 4.0.y.0.s 1.,.u.6.s b.<.a y.5.5.4.,.5.1.q.v 3.b.h :.f.5.q.l 4.y.q.7.p 0.x.g k f.w.q.s 4.q.f.0.t f.f.r 4.w.w.q.p 4.z.",
"J.4.s e.9.0.a g.d.l 1.C.<.h.3.k 9.q.5.r b.5.a y.B.5.j.s 4.7.q.9.p g.5.j f.j.0.i.p 6.2.8.>.l l.4.x x.9.y.u.i 0.5.0.,.2.l.4.3.H.p.",
"s.e.i.2.j n.r.,.y.u.,.9.g.4.9.u.9.k C.<.<.t.f.s y.u.1.9.u.7.,.C.:.<.i.i.g y.y.9.q.y.4.9.N.j 8.t.u.,.u.4.e.u.9.k g.x.l 2.y.8.1.b.",
"b u.l.G.4.k C.,.:.l.8.a 5.h x.i.N.a 9.N.j <.b.5.a :.4.n.i.N.e u.g.s y.i.:.4.k 8.x.x.x.q n.y.g u.y.k 7.a u.g.B.9.p B.5.k l.e.p y.",
"n.1.,.f.u.h 7.7.b.5.4.i k x.4.,.u.e.k 5.q.x.,.7.e 4.j.4.1.r.5.:.5.r.g.d 4.i 5.y.9.5.u.:.4.8.x.f.k x p y.q.5.y.y.:.7.4.j.9.k k c ",
"x.k a h i.r.l 0.u.s f p e.g.d j 4.r.4.v y.y.k s i j.e.p s e.y.,.4.f.1.k s p M.9.p r g.u.k 4.j.k ,.a p M.,.a a x.u.k 6.u.a j i 0.",
"U.0.4.p q.x.5.e p 4.h.a i.M.q.5.3.y.u.3.k p 0.d.p K.x.5.,.5.f.y.p k a f.0.p I.u.4.a q.x.q.q a k b.:.,.L.y.5.i y.M.9.q p l b.l q.",
"b.b.9.p k <.u.q.p j.q.s M.i.b.,.p 4.1.y.9.:.j.k h B.f.B.k a 5.<.5.4.5.j.s 7.b.u.b.p r 2.9.5.k p.j.e y.n.f.f.p a 8.q.0.a f.d.q b.",
"k x.j 6.q.h M.9.x j e f.u.:.b.i q.5.:.V.3.6.k 0 M.9.,.b.e d.,.5.G.s 4.a i G.<.5.j.p u.k y.n.p 4.s k V.k y.5.:.y.a x.f.k 4.p 4.J.",
"z.f.d j.u.q.u.q f s g.u.a f.y.k j.5.i.y.0 s s V.q.k f.7.4.b.3.b.7.q a k V.,.:.j.4.q.b.,.M.,.p p 3.B.:.5.j.s d.j.1.l.p p s q.b.6.",
"y.,.p y.l ,.k c s B.j.a p y.d d q.,.3.j 4.a B.f.p s d.i 4.q.l l s 5.k F.y.a a q.i 5.,.,.j x 3.5.b.1.a ,.6.e p.l k g ,.:.d.b.j 6.",
"h.4.4.l 4.q.0.k k y.k q.B.7.3.4.,.4.q.0.l s f.g y.B.4.:.4.,.q.8.4.k l d.x u.x.5.4.l l q.q.3.j 6.5.,.i.i.4.6.l l 0.q.,.s q.4.4.G.",
"f.4.x j.x.9.V.p 9.9.q s K.4.3.4.b.0.u.B.i f.4.t l L.a 4.4.B.9.x.j.p d.l u 8.I.s x q.G.<.G.q.3.y.s p j.N.h x d.G.7.G.,.5.q.p t B.",
"q.y.i f.w.j 4.q.9.4.k d.,.y.7.p j.4.a 5.q.6.x 4.f.,.y.4.,.x.k a e.q.4.k q.y.5.q.p q.f.s k f.y.4.p 7.5.y.q.r u.y.s k q.q.7.g 9.9.",
"P.q.6.z.s.v.c b.b.6.y.K.a.b.7.0.f.s.b.l n.h.0.f.V.p.b.v p.f.s.h.x B.s.0.b.b.s.b.c f.q.s.f.4.n.p.a.G.f.h.v.c j.s.h.q.s.b.a.w.K.v."
};
