/* XPM */
static char *d88015d911e7414eb146d66caf612333V6WMEm35mcn5VVBB[] = {
/* columns rows colors chars-per-pixel */
"64 64 197 2 ",
"   c #020202",
".  c #060606",
"X  c #0A0A0B",
"o  c #100F0E",
"O  c #11100F",
"+  c #0B0E12",
"@  c #131416",
"#  c #131419",
"$  c #1A1A1C",
"%  c #33390F",
"&  c #171D25",
"*  c #1A1D21",
"=  c #1E2226",
"-  c #232527",
";  c #21252A",
":  c #24292E",
">  c #2B2C2D",
",  c #32332D",
"<  c #262B32",
"1  c #292D32",
"2  c #292C3D",
"3  c #2D3235",
"4  c #2E333C",
"5  c #313337",
"6  c #33363C",
"7  c #34393E",
"8  c #3C3D3D",
"9  c #2C6408",
"0  c #2D6908",
"q  c #326B06",
"w  c #346D0C",
"e  c #387007",
"r  c #37710E",
"t  c #39720E",
"y  c #366E12",
"u  c #376A16",
"i  c #386F15",
"p  c #377110",
"a  c #3C7414",
"s  c #3F7815",
"d  c #3D761A",
"f  c #3F781A",
"g  c #384733",
"h  c #3F7620",
"j  c #42471C",
"k  c #417615",
"l  c #427B16",
"z  c #487F17",
"x  c #41761B",
"c  c #437C1B",
"v  c #487E1D",
"b  c #477227",
"n  c #457D21",
"m  c #497E23",
"M  c #477F28",
"N  c #4A7E29",
"B  c #2A3742",
"V  c #303145",
"C  c #363C42",
"Z  c #3A3D43",
"A  c #3C4146",
"S  c #3C4148",
"D  c #3C475C",
"F  c #3E4C64",
"G  c #414144",
"H  c #41464B",
"J  c #43484D",
"K  c #454B51",
"L  c #4A4E55",
"P  c #4C5156",
"I  c #4E5359",
"U  c #505050",
"Y  c #51575D",
"T  c #53595E",
"R  c #595A5C",
"E  c #555665",
"W  c #565C63",
"Q  c #5A5E65",
"!  c #595D68",
"~  c #495775",
"^  c #525872",
"/  c #515E7E",
"(  c #5B6065",
")  c #5D636B",
"_  c #5A667A",
"`  c #656667",
"'  c #61666C",
"]  c #6B6C6E",
"[  c #616572",
"{  c #656B73",
"}  c #686D76",
"|  c #6C7175",
" . c #667079",
".. c #6D737B",
"X. c #72767D",
"o. c #77797B",
"O. c #7B7C7D",
"+. c #468016",
"@. c #4A8417",
"#. c #47801D",
"$. c #49831D",
"%. c #4E891D",
"&. c #528B1F",
"*. c #478021",
"=. c #4B8423",
"-. c #4F8824",
";. c #4D8529",
":. c #4F8929",
">. c #508725",
",. c #528B25",
"<. c #51862B",
"1. c #538C2B",
"2. c #598E2D",
"3. c #569126",
"4. c #5A9326",
"5. c #5E9926",
"6. c #57902B",
"7. c #5A942C",
"8. c #5E992C",
"9. c #538533",
"0. c #568D32",
"q. c #5A8E33",
"w. c #5A833E",
"e. c #5B8D38",
"r. c #579031",
"t. c #5C9433",
"y. c #5E9536",
"u. c #5F9931",
"i. c #5F9933",
"p. c #5E9539",
"a. c #5F9838",
"s. c #61972F",
"d. c #619C2D",
"f. c #619634",
"g. c #609931",
"h. c #629C34",
"j. c #659E36",
"k. c #689F36",
"l. c #61963A",
"z. c #649C3A",
"x. c #679E3A",
"c. c #689E3B",
"v. c #64A02E",
"b. c #65A134",
"n. c #6AA436",
"m. c #67A03B",
"M. c #6AA33C",
"N. c #6EA93C",
"B. c #71AD3F",
"V. c #689E40",
"C. c #699849",
"Z. c #67A041",
"A. c #6CA442",
"S. c #6EA941",
"D. c #6DA048",
"F. c #70A743",
"G. c #73AC44",
"H. c #73AC48",
"J. c #76B244",
"K. c #79B445",
"L. c #77B14A",
"P. c #7BB54D",
"I. c #7EA95B",
"U. c #85A570",
"Y. c #99BF77",
"T. c #6A6B82",
"R. c #6F7789",
"E. c #757B82",
"W. c #797E85",
"Q. c #797F8A",
"!. c #7A8085",
"~. c #7C828B",
"^. c #7E8390",
"/. c #828483",
"(. c #82888F",
"). c #8A8B8D",
"_. c #939C8F",
"`. c #858B92",
"'. c #898C92",
"]. c #878F98",
"[. c #8D9296",
"{. c #8C9299",
"}. c #959694",
"|. c #92969B",
" X c #9C9C9A",
".X c #999CA3",
"XX c #A3A6A8",
"oX c #A7A9AA",
"OX c #AAACAD",
"+X c #ABAEB3",
"@X c #AFB1B2",
"#X c #AEB0BB",
"$X c #B4B5B5",
"%X c #B9B9B9",
"&X c #AEC79B",
"*X c #CCDEBE",
"=X c #CFCFD1",
/* pixels */
"q.c.c.f.m z.c.1.2.f.9.9.z.:.z.M.8.m A.8.2.r.z.=.t.t.2.z.M.y.N S.1.9.p.V.=.y.0.t.M.d.2.9.A.1.2.8.z.$.l.0.z.V.i.=.t.M.1.2.p.t.=.D.",
"z 2.2.M.,.s k.z $.s.1.d =.#.7.7.N.#.=.h.l ,.7.-.c c ,.i.7.N.a 1.7.v 1.6.=.=.x -.8.8.j.a t.2.l 5.1.c =.x 6.3.M.7.a d.>.c t.,.l =.",
"c.=.m >.4.#.=.1.n.%.m a #.i.v c &.3.#.%.7.h.#.=.w -.8.$.#.3.,.#.-.8.7.c =.t ,.1.#.=.4.$.c :.d.3.c n a 3.,.$.-.7.v =.1.z.-.c k m ",
"m.c x z 5.7.M ;.2.k x a 7.8.s l =.7.%.*.0.-.c f a j.,.a f 3.7.=.=.3.$.*.c a N.-.a a 8.7.*.;.4.c ;.c f M.+.a r a.8.*.*.7.a c a 2.",
"L.,.1.a %.g.1.i p :.a.s i.b.r.,.s 3.5.#.h d r.r.a S.i.6.#.=.7.7.p c d a.1.a L.t.0.f =.g.,.w x c C.n c K.7.1.a -.h.,.w a =.Z.c 1.",
"6.j.=.a #.c t.6.f p.*.s m.-.z.c d -.+.r.0.*.p.i -.h.1.V.a s =.#.6.-.1.t.0 1.h.2.z.f s @.%.r.c 0.r.0 i.8.7.t.a c #.3.r.a t.1.w M.",
"=.l.x :.6.l M.=.n d d i.7.#.a.r t.-.@.M.f *.a h m.-.$.z.a t.#.3.M.p #.a #.m.$.1.r.a h.l 8.z.a c a -.g.v t.-.#.t.s b.3.a x a r.M.",
"l.1.s a.6.2.6.p s f m.3.p i.:.#.a.-.t.-.r d m S.#.s t.=.1.z.#.h.=.x f $.M.c v t.c 3.h.#.i.c s a 1.m.s -.6.a a.t.=.8.s x s t.y.c ",
"2.v a 1.c n d =.s m.r.s l 1.a x :.#.c f :.a m.1.c s 0.y v %.z x c -.c z.-.l f ,.a =.c m d m c =.z.$.c c =.a 2.l c f *.c t.i.l 1.",
"z.=.,.$.=.2.y.x c 1.c 1.S.1.$.:.=.-.1.r.l *.:.f 6.A.-.n =.%.=.1.=.c :.-.a t.S.=.$.$.=.1.t.*.f :.=.x g.m.=.:.c =.2.t.c l -.#.;.S.",
"q.=.c z.t.%.M.k 0.1.w a M.:.=.*.m.1.6.M.t t.:.p c N.#.;.=.F.m f.h.a t.#.i :.N.c x T.^ _ R.t.c r.c a 6.M.c n r.A.#.c.$.-.6.a y c.",
"l.,.w y.1.k l s.:.m =.8.l e.;.a t.:.f @.8.m c :.8.#.t.c m t.z k ,.7.m c 0.3.=.p.E         2 4 : Z ] }.,.0.w 0.2.f a 7.2.*.c r.2.",
"D.=.=.,.;.h.l ,.h.=.=.n.4.6.*.1.%.-.m.e 4.i.=.=.h.3.y.s 1.=.1.c.e 8.2.=.1.i.6.E   % j .             X > 2.v 1.$.f.,.+.f.<.*.M.8.",
"m i.h.8.s 7.d.+.%.8.=.#.3.s i.h.8.a h.7.*.3.8.x ,.,.#.i.d.4.a n.,.x 6.j.k ,.o.>  X, . X X . X V D &     O o.7.z %.n.=.$.d.2.k z.",
"2.,.,.M.:.s a.@.=.7.=.a @.-.8.-.M.#.*.a.c ,.3.1.s #.,.t.3.M.k &.8.c 3.,.=.z }.$X3.%X$   . X   @ F ~ / 4 X $ ).7.y g.=.=.5.-.c N ",
"b.#.c %.4.@.=.1.c.*.n y #.h.c #.-.3.#.;.4.i.c n w ,.7.c c 3.,.c :.f.7.s l t 7.,.c *.%X$     X .   & B D / ~ 6 G ).m ,.b.%.f a N ",
"M.c n s t.5.#.*.:.f ;.p y.h.x l %.5.3.*.-.$.m *.f M.,.f f 3.i.=.*.:.#.=.f s S.%.f a h.$X` P .     o o . . + Q OXR $.c :.f ;.f 0.",
"G.t.2.a =.a.=.d r ;.p.a i.h.t.-.s -.7.c f a r.2.s M.d.i.:.c 3.3.p d #.a.-.a S.h.t.x $.8.&.w - = @ Q #.B.i.    !.j.,.w a ;.V.f 2.",
"=.f.=.s *.s 8.t.n p.a #.m.$.h.s c $.+.a.0.*.0.0 -.h.%.m.y c $.#.z.*.:.6.0 t.3.1.l.a c v W.5 > 6 5 P m.,.6.6..   OX6.l.x t.c y H.",
"1.z.x 1.y.#.n.+.f i *.z.,.-.z.a 6.,.-.M.a c i :.b.-.,.t.a h.=.7.M.p #.a :.a.*.6.1.c j...' ' =   > J ; =.a.*.=.8 X  X1.a a m z.t.",
"p.1.a a.1.:.:.a x =.A.=.r t.=.f h.=.6.$.a a :.H.c t t.c -.h.$.6.%.f d :.n.s c t.a r... .^.].W C P Y < ] 3.p a.r.O.).s c m l.1.c ",
"2.#.s -.n m d =.a z.,.+.$.=.a c :.m c f =.s m.=.#.*.1.a c m $.a s *.h m.$.#.*.:.s =.`.`.~.~.^.~.'.T S 3 -.f =.s =.s #.f t.t.f t.",
"z.=.1.=.1.6.a.a $.%.a 0.G.-.=.1.1.=.7.p.a =.-.f 2.L.=.*.1.-.1.y.1.a 1.-.a 6.J.*.*.-.{ ) ~.^.^.!.{.O.A 3 XX-.-.1.3.z.c c -.x m H.",
"2.=.d z.8.#.z.l 3.1.i d 8.,.:.f m.,.=.z.f t.=.a *.a.=.=.=.M.c 2.c.c r.m a -.m.*.h .XT P ) !.~.X.' ) J = ' a t.m.l i.,.1.3.a p c.",
"c.-.y 2.3.v k d.>.n =.j.c t.#.a 7.,.c c 8.#.c -.i.#.i.f z 2.=.z =.t.z l f.t.=.r.p +XW 6 ' Y A ].!.4 C 1 | 0 1.,.c k t.3.c v z.e.",
"V.=.1.%.$.k.z >.l.=.$.g.t.1.$.4.%.=.M.k 3.i.0.*.8.t.2.c 3.=.1.M.w 6.s.>.$.s.6.2.=.#XD 6 ~.] T | X.W < A 3 %.%.#.d.3.k s.>.=.h.f.",
"c z.m.8.l -.n.=.=.j.,.l ,.l m.b.g.t d.h.n %.v.$.*.=.+.g.h.i.r b.g.k 1.g.k ,.$.,.m..XW ( ) X.{  .I X.( C $ n.h.$.z n.>.m 8.3.a r.",
"6.1.:.h.,.x 7.*.1.6.>.i n 1.3.=.M.=.v 7.*.4.%.-.d #.1.t.-.j.c %.2.%.8.=.-.a $.r.0.{.{ Q { | { !.S ( (.< J -.a.8.a 3.>.<.8.-.v m ",
"M.c c $.6.=.*.3.d.l f y :.i.l l %.2.c =.7.8.f s w 6.7.n f 3.3.s -.i.3.x l t 8.2.d |.) ..T.C ( ..S ..`.S J c l 8.-.n -.b.=.c w :.",
"S.m c l y.8.-.*.c c 1.a 8.h.$.c v 7.6.n =.l =.:.p S.8.h f 3.i.:.c -.f :.=.a S.-.c |.) ..| I W ) W ^.~.J = oXa i.b.:.d -.s 1.x 1.",
"D.a.,.a $.4.,.x a t.p.w 8.m.i.,.l %.1.$.=.c t.:.d M.b.i.=.s 3.3.a =.=.z.*.d N.b.i.|.W  . ...E.{ E.`.`.P : OXa +.y.6.y d t.z.a 7.",
"$.t.#.#.=.s h.7.c 1.w =.m.z a.t =.=.+.c.1.=.;.0 y.i.$.b.r $.$.+.j.c 1.*.9 m.3.-.a.{.!  .{ ) ..{.{ E.!.I < OXs *.s 4.i.f 0.d p J.",
"r.y.l r.t.=.Z.a f p :.z.=.1.a.s i.,.1.z.w s a t.a.=.6.6.c z.#.a.z.w s a y.t.=.7.>.|.! ) )  ...Y L L S I < OX1.z.c M.@.a y ;.m.2.",
"l.=.a a.-.,.=.c f 1.Z.c e t.*.v t.@.,.#.c a 6.S.a p t.f -.7.c 6.$.c s i.m.a c 6.a {.L ! [ Q.S C !.' 4 J 3 OXa.1.$.-.l l $.b.:.n ",
"t.m c #.l $.c =.a z.-.-.%.-.f *.=.#.#.c =.a z.c $.,.1.s #.c =.#.l $.x h.c -.-.,.k [.K W ) ..X.P Q E.} C = @X=.a =.c =.s r.,.c p.",
"z.=.-.1.3.6.z.a :.=.a *.J.-.#.1.6.,.a.a.r 2.=.a -.P.*.=.:.7.:.h.2.a 3.*.a 6.L.c v ).Y Q W [ W.1 J W.~.C = @X:.y.1.M.x =.,.a c S.",
"0.2.a c.2.n 0.$.r.,.a #.3.1.-.f z.=.c t.+.6.:.d %.3.-.*.=.m.f =.h.$.6.c c :.6.=.l |.Z L ( { Q Z P E.Q.6 ; $Xz.z.k ,.,.,.6.a a h.",
"c.=.p -.,.;.k f.1.d =.N.c t.-.a 2.,.$.l h.-.n <.m.$.p.d $.,.,.=.c z.=.s t.z.=.h.w ,.] ` H S o.) S X.!.7 = +X,.,.m z 2.2.c N F.2.",
"y.,.7.,.c M.,.=.i.3.#.3.a.-.-.7.,.$.N.k =.8.3.x 7.t.1.=.7.=.-.S.t 1.i.6.#.t.r.e.=.,.)./.O.T 3 * : } ~.C $ oX,.#.z.f.l 7.1.1.2.l.",
"c a.h.b.c $.n.#.c d.:.f -.s b.h.n.a ,.j.n =.b.#.c $.$.m.i.m.p 8.d.x ,.g.l =.z b e.n.6.u Y.&X_.oXS J ~.; @ $Xb.%.k M.<.v g.,.a p.",
"h.<.=.g.3.l ,.=.6.,.-.d l 3.1.$.h.,.c ,.=.8.=.-.r f i.-.-.8.$.#.,.1.7.#.,.a #.8.-.1.7.l -.@.I.*X=XT g b C.=.4.4.l ,.=.6.6.=.c m ",
"j.l x l t.,.c 3.t.c f a 1.i.a a %.3.$.*.7.4.l f p 8.4.a d 3.4.#.;.t.-.c s t d.%.a f 8.3.x :.h.=.C.U.w.m.=.f f 8.,.n 1.g.c c r :.",
"G.$.=.a t.z.,.f d *.r.a h.h.-.=.$.3.6.=.n d =.0.d G.8.*.d 6.8.3.n *.x 6.=.s J.,.m s 8.h.1.p m f l.v m G.=.*.a 7.j.1.i n c i.c 1.",
"M.z.1.a c 3.,.m f p.r.r i.h.h.-.a $.2.-.*.f p.;.s b.i.i.*.d :.-.c *.:.z.c #.N.i.a.x a 3.-.f n 1.z.a =.M.h.y.a l 3.,.n d a.a.p t.",
"c i.c #.1.s m.7.#.=.w 1.z.s i.t -.:.c m.-.=.*.0 i.8.#.i.w 1.*.%.m.*.:.#.q m.-.=.t.r 0.l 3.h.a :.c t A.$.1.,.s :.t 8.l.n :.p f H.",
"t.t.l t.7.-.h.t a t 7.z.c 6.t.x a.-.3.a.w s a a.7.l 7.6.*.z.*.h.6.w s s z.1.*.t.=.-.M.c m.-.w a v z.=.-.a.l 3.z.#.b.s a p ;.m.:.",
"p.$.t y.#.m #.v s t.m.s t 0.x c t.c =.=.#.d a.Z.a r t.f =.2.c =.c =.x z.z.a d 1.t 6.1.c =.#.*.=.z.3.a #.1.w p.:.*.$.c c 1.Z.$.=.",
"y.=.=.$.c :.=.#.a i.*.:.t.>.c =.#.=.*.*.*.f a.c 1.t.:.f *.#.-.=.$.c c i.x 2.6.-.c #.c -.#.#.f -.6.c 6.1.=.c m c :.=.*.a r.-.#.h.",
"y.n ;.2.8.6.M.a 1.=.t c J.-.*.:.a.1.a.h.r 6.=.r #.P.c #.=.b.,.M.7.a 6.#.a 1.K.f =.,.z.,.A.<.c ,.f a h.A.f =.1.z.:.S.c =.<.a a A.",
"7.1.r a.,.k ,.1.2.1.f %.@.r.;.d i.=.c 6.-.,.$.#.-.%.1.m *.h.l c t.=.1.c *.3.1.1.a 7.g.k v r.2.2.f #.1.t.1.y t.t.a =.2.2.2.a =.f.",
"S.:.d 3.,.<.k g.2.c =.N.#.p.*.n 3.:.-.t h.-.f 6.M.%.a.f =.:.1.,.a i.:.c t.a.1.7.i <.>.>.$.+.d.N m z.,.6.r.t -.:.,.$.&.f.m n N.2.",
"e.6.5.,.x c.3.c 1.7.#.,.i.=.,.7.-.#.N.@.@.7.i.f 6.7.=.,.7.:.#.N.l $.8.8.x 3.1.,.,.2.$.-.n.c ,.4.6.c 7.=.3.7.,.c t.h.z ,.1.,.-.z.",
"N 7.d.A.=.c N.#.#.d.,.a -.l h.8.M.s -.n.f $.g.:.s #.=.m.8.n.t 7.h.s 3.8.#.=.z ,.h.h.i.w h.t.l 7.6.x :.s 4.i.m.,.a M.=.c d.1.a 6.",
"h.%.=.6.4.l :.:.h.-.*.a #.i.=.#.4.3.c -.1.z.v :.t $.z.#.%.4.-.c -.6.i.c =.t $.6.-.,.7.$.=.-.f.t.#.$.a 6.1.-.6.7.c =.,.p.,.@.c m ",
"j.c x l i.3.#.1.t.f f a 3.i.f x =.4.=.;.6.1.c d a a.3.a f 3.3.#.=.7.%.x a a M.-.t a i.6.c =.a.c #.s a z.#.a s h.4.c ;.7.s x p 1.",
"L.>.=.a 2.i.-.r a *.p.s 8.b.1.-.*.2.6.n c a 1.6.a S.a.-.#.-.t.6.a c f t.:.a L.7.=.s 3.h.2.w f c a.#.#.J.4.:.r 6.b.2.y a c h.v 1.",
"y.z.-.a c -.3.2.a z.1.f h.8.z.$.a =.@.3.1.c z.c #.m.t.m.c s -.@.1.=.=.z.d :.z.7.z.a t >.>.>.c 1.a.w 6.m.t.t.a s -.1.1.s t.r.w c.",
"c h.c -.2.s b.,.n c t t.8.l z.p 1.-.#.N.=.*.c q h.,.c z.r r.*.-.Z.f -.x t m.$.-.y.a 6.+.6.M.s =.f c A.l 6.-.c 6.s d.i.x *.a =.G.",
"h.r.f a.7.,.7.w h a a.6.s 7.t.c a.-.t.6.w d s M.,.c t.:.%.z.m i.,.w s c M.#.#.a.=.1.z.#.j.#.a a $.m.c -.y.c t.a.$.d.a a p 2.z.;.",
"6.=.a r.c *.x v f z.a.a a 2.f d 1.#.m d =.s z.t.a f 0.y -.1.n z x =.c Z.7.a s 2.t 1.$.#.c v n =.h.%.s #.:.w 6.c c l $.c e.h.c m ",
"l.=.=.c m 1.1.n x 6.c 1.m.:.*.=.#.=.1.1.n c 6.l 6.z.=.#.=.=.,.1.-.c m 6.c 6.h.-.m c #.1.1.m c ;.1.c 7.8.=.;.c *.1.1.m d 1.*.:.Z.",
"t.=.m h.h.,.M.a 3.,.w d G.=.*.=.h.2.t.b.y t.=.y m G.l $.=.M.=.z.y.p 6.#.u 1.K.f n 1.A.$.M.1.n 6.f a 8.M.s m 6.A.:.M.v =.1.a a M.",
"2.2.y t.2.x *.3.-.=.c 2.*.2.:.a g.*.c ,.6.=.m =.r.=.6.=.=.8.f l 6.6.=.c 1.6.-.:.a 1.t.d c r.t.=.a 1.1.1.2.t t.6.f c 2.1.1.l =.,.",
"H.0.;.t.q.l.;.z.l.;.2.H.0.z.=.1.t.e.p.c z.p.<.t.M.6.l.N 0.0.t.p.n z.e.<.h.z.p.l.n t.2.t.y.=.z.0.1.Z.y.p.l.m t.2.e.0.0.z.9.1.G.V."
};
