/* XPM */
static char *ab34b7b5c9f74d79820ceab60808c927Zzu11aKWIXhkNTcn[] = {
/* columns rows colors chars-per-pixel */
"64 64 129 2 ",
"   c #296106",
".  c #2E6609",
"X  c #2D6908",
"o  c #326B06",
"O  c #346D0C",
"+  c #387007",
"@  c #37710E",
"#  c #39720E",
"$  c #366E12",
"%  c #386F16",
"&  c #376E19",
"*  c #377111",
"=  c #3C7414",
"-  c #3F7815",
";  c #3D761A",
":  c #3F7819",
">  c #3F7620",
",  c #417615",
"<  c #427B16",
"1  c #487F17",
"2  c #41761B",
"3  c #437C1B",
"4  c #487E1D",
"5  c #457D21",
"6  c #497E23",
"7  c #477F28",
"8  c #4A7E29",
"9  c #468017",
"0  c #4A8317",
"q  c #47801D",
"w  c #49831D",
"e  c #4E891D",
"r  c #528B1F",
"t  c #478021",
"y  c #4B8423",
"u  c #4F8824",
"i  c #4E8529",
"p  c #4F8929",
"a  c #508725",
"s  c #528B25",
"d  c #598F27",
"f  c #51862B",
"g  c #548C2B",
"h  c #598E2D",
"j  c #569126",
"k  c #599326",
"l  c #5E9926",
"z  c #57902B",
"x  c #5A932C",
"c  c #5E992C",
"v  c #538533",
"b  c #568D31",
"n  c #5A8E33",
"m  c #5B8F38",
"M  c #579031",
"N  c #5C9433",
"B  c #5E9536",
"V  c #5E9831",
"C  c #5F9A31",
"Z  c #5F9833",
"A  c #5F9B34",
"S  c #5E9438",
"D  c #5E9539",
"F  c #5F9838",
"G  c #61972F",
"H  c #619C2D",
"J  c #619D2E",
"K  c #649D2C",
"L  c #609433",
"P  c #649633",
"I  c #609735",
"U  c #609831",
"Y  c #619B31",
"T  c #679F33",
"R  c #609A34",
"E  c #649836",
"W  c #629C34",
"Q  c #659F34",
"!  c #649E37",
"~  c #60953B",
"^  c #61963A",
"/  c #629839",
"(  c #679B3A",
")  c #679E39",
"_  c #649C3A",
"`  c #669F3B",
"'  c #619A3C",
"]  c #69993A",
"[  c #699E39",
"{  c #689F39",
"}  c #689E3E",
"|  c #64A02E",
" . c #65A134",
".. c #65A137",
"X. c #68A137",
"o. c #6AA436",
"O. c #67A03B",
"+. c #68A338",
"@. c #6AA13A",
"#. c #6DA13A",
"$. c #6BA63B",
"%. c #6AA33C",
"&. c #6EA33C",
"*. c #6EA03E",
"=. c #6FA938",
"-. c #6EA93C",
";. c #71AD3F",
":. c #659D41",
">. c #669E41",
",. c #689E40",
"<. c #67A040",
"1. c #67A042",
"2. c #6FA641",
"3. c #6CA442",
"4. c #6DA345",
"5. c #6EA941",
"6. c #70A743",
"7. c #71A843",
"8. c #73AC44",
"9. c #74A74C",
"0. c #73AB48",
"q. c #78AF4A",
"w. c #76B144",
"e. c #77B244",
"r. c #79B445",
"t. c #75B048",
"y. c #77B149",
"u. c #77B14C",
"i. c #7BB54D",
/* pixels */
"n ] } P 6 ` [ g h E v b S p [ #.C 7 4.c g B ` g n N g ! O.B 8 5.z b B } y S n B O.K b v 0.g g L ! y ^ g / 1.Y u N 3.f d S N y ,.",
"1 h d *.u - T 1 w G b ; y q N d =.9 w  .< s x u = w s L x -.; f c 2 g x y 3 3 s x c  .@ R s < l a 3 y 3 z k o.x # J s 3 C g < t ",
"` y 6 s k q y f [ e 6 @ q A q 3 r j q u z W < y O s G w w j u q e c N 3 y @ s s q y j w 5 u J j 3 5 = x u w s x w y f @.s < < 6 ",
"O.3 3 < c z i i z , 3 = x c - : y x e t g p 3 3 = O.s * - z x u t k w 6 3 - #.u ; = c c y i j 3 i 3 ; @.2 = = R N t t z = 5 = n ",
"y.s g = e C f = = i F - C ..M u : s c q > ; M M = -.C z t y z x * 3 3 B p = y.N b ; u Y s X 3 5 :.6 3 e.x g = y Y s O = y 1.3 f ",
"z ! y = q 3 x N ; S t - ..u ' 3 - u 9 x b t S % y ` g } - ; y q x y p N X b ! g / = - 0 e N ; z n . C c x N = 3 q j M = N f O *.",
"i S 3 f z < %.y 5 = ; A z 4 A = M u w +.: t ; : ..u y A * N q j %.= y = 3 O.w g b < N < c / = 3 = u ..3 N u q N <  .z = 3 = x +.",
"S g = F z z z * : : O.j # C p q F u C u @ ; t 4.q - N y i ` w ! y = ; w -.3 w N 3 z ! w Y q - = f O.- u z = C S a z = 3 = N B 5 ",
"x q = g 3 5 ; y - ..N = < g - < p q 3 ; p = O.z 3 - g = w w q 3 ; p 3 O.u 3 - g # y q 3 ; 3 5 y ` y < 3 u @ g 3 q - 4 3 N C 3 f ",
"} y a w y z N 2 3 g 3 g 5.i q p y u g N 3 q f = N 5.y 7 y e u g u ; y s = N 5.y w y u g N 6 ; f y < Y O.y p q t g N 3 3 u q p 4.",
"g y 3 / N r *., b g O = %.p y 5 O.f z @.@ N u $ 3 @.3 i y -.4 L / = B t & u -.2 3 g 0.5 ` N 3 N ; = z @.5 4 N O.t ` w u x * $ @.",
"^ f O B g , < G p 7 y c - S i = x p 3 w c 7 3 f c 9 N 4 6 N 4 , s c 3 3 b j y B % f j < = d x 5 ; z s i b O b N : < z d i 3 N d ",
"4.y y s y E < s R y y  .j g y f e u ..# z N y y Y x N : g a s ] + c n y a Y N z 3 s 9 z G # Y s s N N g z q s w L s 0 L i t *.C ",
"y Y ! x 3 x K 3 e J y w z < C ..c = Y x t j c 3 u s q c J k = #.s 3 d ! < s q s J k f 3 #.s 3 k c = M w k K x 9 r o.y w c s 3 C ",
"g j s %.s - Y q y x p = q u x s O.w y C q s z p - q s N z O., r x 3 d s y < < x z x ' # x g 4 B u 3 t 3 j s  .z * L y y l s 3 i ",
"X.q 3 w k 9 y g O.6 3 O w ! < q u j 3 i x c 3 3 $ j x 3 3 s j < i R c = 3 # c s 3 y x e 1 g ` g ; 3 = C r 3 w c y 5 a ! e 2 $ 7 ",
"#.q 3 - C c y 5 y : i & C C 3 < w c s y y t 3 t ; %.j ; 3 g C y y p 4 y : - -.w ; = Y J w 5 g - u 3 3 =.q 3 * A Y y 5 u ; p ; b ",
"0.N z = i x y ; = i S = C _ N s - r c 3 ; - N M = %.J C p 3 j z = > q A u - -...N 3 w l s O = 5 :.3 q -.c N = w W s O * i 1.3 g ",
"y B w 3 y - c x 5 B = 3 O.w / - 3 w 9 / g t b X p C e O.O 4 w q A t p z X B z a ' $ q 9 r ' 3 N u O [ s g M * q 4 z B 3 N y % 0.",
"g / 3 f N w o.3 ; = t / s u _ @ z s u +.= 3 & p ..e g N = A y x +.* 3 = p C y g g 3 ' 3 Y C * ; ; x N y N y u / 3 %.i = = 5 / N ",
"B g = / f g u = : y 1.e + N y 3 C u z y = = i 0.< = N 4 u / w x w : > p o.- 3 N = N B q z 3 ; 2 N C # s g * S M y z = 3 5 F f 4 ",
"g q - p 3 7 ; y = ..g q t s = 2 p 5 3 2 s = O.u q t s = q w 5 = - y 5 O.w 3 5 g = y - t 3 3 3 g / < q 4 y < u = y - w ; N N < n ",
"/ y g y s z A = w e ; f 8.u y i f u x N = u u ; g u.y t u s f C g * p y ; x e.5 y u z g / u 3 f q ; ..5.w p y g z ` 3 3 s 3 5 0.",
"z f ; _ c w ' 2 j g = ; C u g 3 O.s y ` ; M u = y ' w y t 3.3 h ..3 B 5 = u ! 7 ; g 5.- z N y x = = g A y = N %.< c s s z # * } ",
"` p O g d 1 , K f 5 t ! 3 N t # x s 2 w Y q 3 u A q C ; < z a 1 y B 0 2 z N y n $ s s 3 < d N 3 3 Y p b g o s s 3 = c d 5 3 @.n ",
",.u g s w [ 1 y / u w G J s q z e y *.= j c b q c N g 3 j a g *.$ d c s s c x g y s w k ( = x n p j N g j e s 3 E k , G a t R S ",
"3 R O.K < a o.y t ! u - a < ` ..Y # G E 3 u | w y y q ..C N @ ..x 2 d L - s 4 s %.A d # #.d < z K = z - x +._ w < o.a 6 c z ; B ",
"N f u ! s 2 x t g z f = 5 g z y #.y 3 c t j e u = q z b s [ 3 e d y N e y , 3 N g g Y 3 g r a c y 3 3 w k u A x , k y f c e 3 5 ",
"[ 3 3 w x y t z J 9 ; $ u C < < u z w y z c 3 : O g C 5 : j j - u Y z ; < # Y g = ; x s < p ..p : = - Y y < < C u 3 s O.y 3 O p ",
"0.5 3 , B c y 5 3 3 g = C Y q q q x z y y < y p ; 5.x : : j c g 3 y 3 g y = ;.s 3 ; C J y ; u ; b 3 < 8.e 3 = C ` p ; t = g 3 g ",
"4.C s = w k r 3 = N B O C O.Y u - y x 3 y 2 N u ; %...W t - j u = 3 t ` y : -.T C 3 9 k s @ 3 p _ 4 q =.W M = < c g = ; b A = x ",
"3 N q w y - ! x 3 g $ y ` < C = y e < ` g y y X M C w Y + u w q ` w p y   / j u C @ w 3 u O.; M t O +.w g g - y - x A 3 M ; = 8.",
"B A 3 M N y ,.= ; * p ' y f C - C s z ' + - = M C y z z 3 ` 4 C C O 3 = N N y x u w O.3 O.x O = 3 A g p F 5 p F q %.q @ $ p O.g ",
"S y * C u y u 3 ; j 1.3 o N y 3 N q s q : : z 4.= @ N 3 y N 3 z w 2 = C O.= 3 x * N M t s 5 3 3 C S = i g $ F g y u 3 < w  .y 7 ",
"N 5 3 q < w 4 u = ' i u j e ; t y q t 3 u - ^ q y s p ; q 3 y q 4 4 3 C 3 u e u - w : y 3 3 t p B 4 f u y 3 5 3 y 3 y - x s 4 ^ ",
"S y u s g x } * p y - y e.t q g z s S C @ s s = u i.t y u N s ' x = g w = M y.3 t u C g %.y 3 g 3 = A 3.4 u f C g O.3 y s = 3 7.",
"n g $ ` z 5 b w z g = q s z p : ` w 4 N w d i ; e j u t t O.3 w B e z 3 5 f x u ; z O.= u N s z - - s x u * C ' , g s g z = = R ",
"4.u # s g y , N g 3 y +.1 B y ; g g w , R u 5 i O.w S ; w k u y 3 ' y - N A y B * u s y 3 e N 3 < ' s g N O u s 6 < d d 3 8 4.h ",
"^ s x s 3 O.r y x j q x x u u x a w #.< u c s 3 z C f y g y u 5.# f N z 3 x x g y j w N +.= z x j y N s s s j q ] G 3 z g f x / ",
"3 N T ! q y o.q q  .u ; s < ' Y o.# z ..; u  .q 3 y w O.C O.* c J < j Y 3 u 3 g ` W k + ..j < x c - g ; x W ..e = &.f 4 Y s = B ",
"E u y C j - g y M u u = q z s e Y s 3 s u c y u * 3 x u u J w q s g x q g # w x u g c 3 y e s k 9 y 3 y g p z k 3 s u N g y < 5 ",
"T 3 3 < C u < z N - ; = g c = - e z w u g k 3 ; @ x x = - j k q i C u 3 = # | r = - x j ; p ! q < = = ' w = 3 c g 5 p W 3 3 * p ",
"8.w y = c ' s ; ; y M = ! T t y w s z t 5 ; u g = 8.c t 5 g x j 3 i 3 b a - ;.j 7 = c J g = 7 3 B q 3 q.s t * c T g = : : N 3 z ",
"*./ g = 3 z s t ; S n * C Y ' u = e z s y ; B i : ..C A 3 ; g u 3 t y / 2 q -.N C 3 = j u ; 5 g _ = u %.C N = < j s 5 ; F F @ A ",
"3 C 3 y g = O.x q y O g ' < C @ u p 3 O.u y y X C c q A O g q e O.t f q o O.u y B * b < r O.- f 3 * 3.q g s - s # x ' 3 p * : 0.",
"S N - N x s ! @ - @ x ! 3 z N ; A u z C o ; * F x < M z q _ t ' z O = < ' g y N y u O.q O.s O * 3 ` u u C 3 z ' w ..- = * i O.g ",
"B w # C 3 5 4 3 - N ` - # M 3 3 N 4 t q t ; F 1.= # N ; y M 3 y 3 y ; ' ' = ; g @ z f 3 y q t q / g # w f O B p t w 3 3 g O.w t ",
"n y q y 4 p u q = B t i A u > y q y 5 y y : F 3 u C p 3 t q u y q q 3 C 3 g x u 3 w 3 u w q - p x 3 z g u 3 5 3 p y t ; M u w / ",
"S y p g z z &.= g a # 3 w.u y p C g C F + z y + w i.3 y u ! u O.x # M q = s e.4 y s T i 4.u 3 h - * ' 5.3 y g / s 5.2 u p = = 3.",
"g g = / d = s f z f ; e 0 M i ; _ w 3 z y g y q u e g 5 t O.< 9 N u f 3 y z g f = g R , 3 n b g ; w g N f * N N = y d h g = y I ",
"4.u ; s a g # C M 3 w -.q B y 2 s g u # ..u 2 z O.u A : t f p s - C u 3 M C i c = g r a e 1 K y 5 [ s z M * u p g 4 s G 5 y 6.b ",
"n k c s 3 @.z q z x w s C y g x s 3 -.w w z c : z x y u k g q &.< w c c 3 z g s g g y a o.2 a k x 3 x y j x s 3 c ! 1 s z s w ] ",
"8 c K 1.t 4 =.t 3 J s - u < C c O.< s o.3 w A p - q y O.J X.@ c Y ; z c 4 y < u ! Y Y O ` z < x z 3 g - x C ` s = @.s 3 J j = x ",
"A e w z x < u f ! s t * q A y q x j < u f A 5 p @ y / 5 e k u 3 u z C < y # y x y s x w t u / N 3 3 = z g y z x 2 g y ^ s q 3 5 ",
"! 3 2 < C k 5 p N ; 5 * s c : 3 y k u 7 x g 4 : @ C z = ; j z q y x y 3 = = ! s # = N g 4 u A 3 q - = W q = - A z 3 w c = 3 $ f ",
"y.f a = g Y u = = w B - Y ..f p t g x t 3 = f n = 8.C s q u c z = 3 - N g ; w.x y < x Y g O ; 3 ' w 9 y.z u * x  .s $ = 3 ` 3 g ",
"B _ u = 3 e z s = ^ g ;  .c W q = y 0 k g 3 C 3 9 O.N O.4 = u w f y y F ; p ! x / - # s u u 3 b F O x O.N N = = s g f < N N O O.",
"3 Y 3 p g < ..g 5 3 @ N x 9 ' * g u q -.y t 3 o ..s q F @ M q s 3.; y 3 * %.y u B = x 9 z O.- t ; 3 %.< x s 3 x , Y C ; t = y 4.",
"A N 3 B x g x O > ; S x - M x 3 / u c s O ; ; O.g 3 N p y } y W s O - 3 %.w 3 C y g ' q T w = = y O.3 u B - B R w J # < ; g / i ",
"N w = z 3 t 3 t - ` F = - z ; 3 g q 5 5 y - O.c ; = N * y i 3 2 ; u 3 1.x - ; g @ s w q 5 : 5 u ..q - 4 p $ g 3 q < q 3 M B 3 i ",
"S y 5 4 y g f 3 3 z 3 g O.u t y 5 u f f 5 3 g 3 g ` y q t y s f y 3 3 N 5 z Y p y 2 q g b t ; p g 3 x c a q t 5 f g t ; g y p } ",
"N y 5 A E s &.= s s $ ; 8.y y y T g x O.$ N u * 3 e.< w u %.u A C * N 2 $ f e.3 5 g &.y *.g 4 M ; = c o.2 5 x 3.g 3.3 s z * * *.",
"g g $ L h 2 y z u w 3 z w g i = N t ; s g y 5 y b w z t y c 3 < z g y 4 g g y g = i N = 3 N z y - i g z g # x N : 3 d f p < u s ",
"9.n p N n ~ 6 R / v h 0.n / p p B I ^ 3 ` S f x *.N ' 8 b B n S 3 %.S f Y F S ^ i N g B N y %.n f 1.B S ^ 7 N g S b n ` v h 8.S "
};
