/* XPM */
static char *f10c158bec424994bef5b46fcc9ff7ddqpc3fsvLFVQPGZoK[] = {
/* columns rows colors chars-per-pixel */
"64 64 216 2 ",
"   c #020201",
".  c #0A0605",
"X  c #060A06",
"o  c #0A0B06",
"O  c #02010A",
"+  c #090709",
"@  c #0B0B0A",
"#  c #140804",
"$  c #110E0C",
"%  c #0E100D",
"&  c #12120E",
"*  c #1E140C",
"=  c #0B0E12",
"-  c #141312",
";  c #151617",
":  c #191614",
">  c #1B1915",
",  c #171A19",
"<  c #1C1C1B",
"1  c #22150E",
"2  c #201D1C",
"3  c #281F1A",
"4  c #25221D",
"5  c #322E12",
"6  c #171D25",
"7  c #1A1D21",
"8  c #1E2226",
"9  c #242424",
"0  c #292423",
"q  c #2B2925",
"w  c #21252A",
"e  c #24292E",
"r  c #2B2C2C",
"t  c #372925",
"y  c #33322E",
"u  c #3A332B",
"i  c #292D32",
"p  c #2D3235",
"a  c #2E333C",
"s  c #343435",
"d  c #33363C",
"f  c #34393D",
"g  c #3C3D3C",
"h  c #412A2A",
"j  c #473835",
"k  c #2C6508",
"l  c #336C06",
"z  c #346D0D",
"x  c #387007",
"c  c #37710E",
"v  c #39720E",
"b  c #366E12",
"n  c #386F15",
"m  c #376E19",
"M  c #377211",
"N  c #3C7414",
"B  c #3F7815",
"V  c #3D761A",
"C  c #3F7819",
"Z  c #3F7620",
"A  c #42471C",
"S  c #417615",
"D  c #427B16",
"F  c #41761B",
"G  c #437C1B",
"H  c #487E1D",
"J  c #457D21",
"K  c #497E23",
"L  c #477F28",
"P  c #4B7D2A",
"I  c #2A3742",
"U  c #303145",
"Y  c #363C42",
"T  c #3A3D43",
"R  c #3C4146",
"E  c #3C4148",
"W  c #3C475C",
"Q  c #3E4C64",
"!  c #434444",
"~  c #41464B",
"^  c #43484D",
"/  c #4C4C4C",
"(  c #454B51",
")  c #4A4E55",
"_  c #4C5156",
"`  c #4E5359",
"'  c #535353",
"]  c #565759",
"[  c #53595E",
"{  c #5B5B5B",
"}  c #615A53",
"|  c #6D6156",
" . c #555665",
".. c #565C63",
"X. c #5A5E65",
"o. c #595D68",
"O. c #495775",
"+. c #515C7A",
"@. c #605F60",
"#. c #5B6065",
"$. c #5D636B",
"%. c #5A667A",
"&. c #636363",
"*. c #61666C",
"=. c #67696C",
"-. c #6B6C6C",
";. c #726C67",
":. c #6C7069",
">. c #616572",
",. c #656B73",
"<. c #686D76",
"1. c #6A7176",
"2. c #6D737B",
"3. c #737373",
"4. c #72767D",
"5. c #77787A",
"6. c #7C7C7C",
"7. c #817773",
"8. c #478017",
"9. c #47801D",
"0. c #49831D",
"q. c #4E891D",
"w. c #528B1F",
"e. c #478021",
"r. c #4C8423",
"t. c #4F8824",
"y. c #4D8529",
"u. c #4F892A",
"i. c #508725",
"p. c #528B25",
"a. c #51862B",
"s. c #548C2B",
"d. c #598E2D",
"f. c #569126",
"g. c #5A9326",
"h. c #5E9926",
"j. c #57902B",
"k. c #5A932C",
"l. c #5E992C",
"z. c #528432",
"x. c #568D31",
"c. c #5A8E33",
"v. c #5D8E3A",
"b. c #579031",
"n. c #5C9433",
"m. c #5F9931",
"M. c #5F9833",
"N. c #5E9539",
"B. c #5F9938",
"V. c #61972F",
"C. c #629C2D",
"Z. c #619634",
"A. c #609931",
"S. c #629C34",
"D. c #689F36",
"F. c #61963A",
"G. c #649C3A",
"H. c #679E3A",
"J. c #689E3B",
"K. c #64A02E",
"L. c #66A134",
"P. c #6AA336",
"I. c #67A03B",
"U. c #6AA33C",
"Y. c #6EA93C",
"T. c #71AD3F",
"R. c #5D8542",
"E. c #638E46",
"W. c #669A43",
"Q. c #67A041",
"!. c #6CA442",
"~. c #6EA941",
"^. c #6DA048",
"/. c #70A743",
"(. c #73AC44",
"). c #74A84A",
"_. c #74AD48",
"`. c #77B145",
"'. c #77B14A",
"]. c #7AB44C",
"[. c #86827E",
"{. c #6D7186",
"}. c #757B82",
"|. c #797E85",
" X c #797F8A",
".X c #7A8085",
"XX c #7C828B",
"oX c #7E8390",
"OX c #838383",
"+X c #8B8B8C",
"@X c #958D89",
"#X c #818690",
"$X c #858B92",
"%X c #888D94",
"&X c #8D9296",
"*X c #8C9299",
"=X c #939393",
"-X c #92969B",
";X c #9B9B9B",
":X c #A2A19E",
">X c #999CA3",
",X c #A3A3A3",
"<X c #A6A8A9",
"1X c #ABACAC",
"2X c #B2ACAA",
"3X c #ABAEB3",
"4X c #AEB1B5",
"5X c #B5B5B4",
"6X c #B9B9B9",
"7X c #C4C4C4",
"8X c #CCCCCC",
"9X c #CFCFD1",
"0X c #D4D3D3",
"qX c #E7E7E7",
"wX c #F4F4F4",
"eX c #FFFFFE",
/* pixels */
"c.J.J.Z.K H.D.p.d.H.x.z.F.r.J.U.M.e.!.B.s.n.H.r.b.M.s.J.I.n.P ~.s.x.N.W.K N.x.n.U.C.s.z.~.s.s.C.H.r.F.a.G.!.n.r.n.~.s.d.N.n.r.W.",
"H d.d.U.p.B D.H H A.s.V r.r.n.j.Y.8.9.L.8.t.k.u.D 9.p.n.k.Y.V s.l.F p.n.r.9.G p.k.l.L.N Z.s.D g.p.G r.G j.f.P.k.c C.t.9.M.p.D r.",
"J.r.H w.g.9.r.s.D.0.K b 9.M.9.G q.f.8.t.j.S.8.r.z p.S.H 9.j.u.8.q.l.n.G r.z p.s.H r.f.0.e.u.C.f.G J N k.t.9.t.k.9.0.p.I.t.D D e.",
"H.J G D l.k.e.y.g.S G N k.l.B D t.k.t.e.s.u.G C N S.p.N B j.l.r.r.f.8.r.G N Y.w.N B l.l.H y.g.G y.Z D I.8.N N M.n.r.P s.N H B d.",
"'.p.a.N q.M.a.n m u.B.N l.L.x.p.B p.l.8.Z V b.b.N Y.l.j.e.e.k.k.N D G N.u.B (.n.x.C t.S.p.z D J W.K H `.k.s.N u.S.p.z M r.W.G p.",
"k.S.r.B 9.G n.n.C B.e.B I.t.G.H N t.8.k.x.e.N.n t.S.j.W.B C r.0.n.r.p.n.z s.S.j.B.B B 8.q.x.G x.x.z B.l.k.n.N G 8.p.d.V b.x.z U.",
"P F.D u.j.D U.r.G C C S.k.9.B.M n.t.0.U.C e.V C I.t.0.B.N n.9.f.I.N 0.N 9.I.r.s.j.C M.D k.H.N G N t.L.8.n.t.9.n.D L.j.B V B n.U.",
"Z.s.B B.j.j.j.M C B I.p.c M.u.9.B.t.M.t.z C J !.9.B M.r.u.G.9.S.r.N C 0.U.G G n.G j.S.9.Z.G D M u.I.N t.j.N M.n.r.l.N G B n.n.G ",
"d.9.M s.G K F K N I.b.B D s.B D t.9.J V u.N I.x.C B x.N H 0.H F V r.J I.q.D V p.N r.G e.G J J r.G.r.D 9.r.M a.D H C e.G n.M.D y.",
"J.r.p.9.r.s.A.F G j.G s.~.a.e.u.r.t.s.n.B 9.p.B n.~.r.K r.q.p.s.u.C r.p.B M.~.r.e.r.t.y.b.r.B u.r.D B.G.r.r.r.r.s.n.H D t.9.y.(.",
"x.r.H G.k.i.Y.S x.s.z N U.y.r.J I.s.b.I.N n.r.b G Y.9.y.r.Y.H Z.S.N n.e.m t.Y.D B {.+.%.{.b.G b.B M k.I.K J b.~.e.J.0.t.s.N b J.",
"F.p.z M.s.S D V.u.K r.l.D N.y.N k.u.G 8.k.r.J u.S.D b.G r.n.H S p.k.H G x.s.r.N. .        U a e T -.;Xp.s.z x.d.C N j.d.r.J k.k.",
"W.r.p.p.r.G.D p.S.r.r.L.f.j.e.s.q.t.I.x j.n.r.r.S.j.n.D p.r.s.J.x l.k.i.i.S.n. .  5 A               + r d.0.p.0.Z.q.H S.u.r.U.n.",
"r.Z.Z.k.B k.C.8.0.C.r.0.f.B M.S.l.N S.k.9.f.C.D q.p.9.M.l.g.V P.s.D j.S.N p.5.q ;Xy X @ X X @ U Q 6     $ 5.k.H q.P.r.0.l.s.D A.",
"s.j.p.U.p.B S.9.r.k.u.N 9.t.l.p.U.9.r.M.9.p.j.u.B 9.p.k.f.Y.N q.k.G s.i.i.D =X5Xg.6X<   + + . = Q O.+.I + 6 +Xk.M Z.t.0.h.p.G P ",
"L.9.G q.g.0.0.s.G.r.G z 0.S.G 9.t.f.G y.g.M.G J z p.k.J H p.p.G u.S.l.B D N l.s.8.e.6X,     o X   6 I W +.O.d ! +XK p.L.q.V M P ",
"U.0.J B n.l.r.J r.C y.n M.S.C G q.g.t.r.t.9.e.e.C U.p.C C j.M.q.e.s.8.t.C B Y.t.B V S.6X&.'       @ - . O = #.1X{ e.J y.V y.C x.",
"(.n.s.B r.l.r.V n u.N.N M.L.n.t.B p.l.G C N b.b.N Y.C.M.u.G f.j.M Z G B.u.c (.S.b.G 8.l.p.z 8 8 ; #.9.T.l.    OXZ.s.M N y.Q.G s.",
"r.N.0.C r.B l.n.J v.N G I.9.S.B D 0.8.B.a.r.x.z s.M.q.I.z G 0.H B.r.u.b.k k.f.p.F.M G G .Xs p s s _ H.p.j.x.X   1Xj.M.C n.J n (.",
"s.G.G a.n.0.P.D C N e.G.p.t.G.N k.t.t.U.B D m u.S.q.s.n.N S.r.l.P.M e.M p.B.r.b.x.H G.2.,.$.8   r ^ w r.M.e.r.g @ ;Xp.N N J F.M.",
"M.s.N B.a.s.t.N D r.!.0.z n.r.C G.r.k.0.N N u.).D N n.G r.H.H k.0.G Z u.P.B G b.N n.2.,.oXoXX.R _ ` e :.j.M B.b.6.+XB G J F.s.H ",
"s.9.B u.J J V r.c I.s.9.r.r.B G u.J G C r.N I.r.9.e.p.N 9.0.J N B e.Z I.0.9.9.u.N r.%XoXXXXXoXXX%X..R d r.C r.B e.B 9.C n.n.D b.",
"G.r.a.t.p.j.B.N 0.t.N x.(.t.r.p.p.u.j.n.N r.t.C b.'.r.r.t.p.p.A.u.N s.t.V j.`.e.r.t.<.>.XXoXoX.X*X6.R a <Xt.t.s.j.H.G 0.p.D y.!.",
"s.a.V G.l.9.G.G f.p.m C l.t.u.C I.t.t.I.C b.t.N J G.0.r.J !.G d.I.G b.9.N t.L.e.Z >X[ ( >..X.X}.$.$.E 8 $.B n.I.D n.r.s.j.M n U.",
"W.p.b s.f.H S V.s.J r.A.G n.9.N j.p.G H M.9.G t.M.0.B.V G j.i.H r.m.H D V.l.r.n.M 3X..f $.[ R %X.Xp Y i 1.l p.s.D S k.d.H H S.c.",
"H.r.p.p.0.D.H q.n.s.G V.M.s.9.g.w.0.Y.V f.l.x.9.l.l.s.9.f.i.p.U.z k.V.p.0.V.s.s.y.4XW a XX1.[ 1.4...i R p q.t.H A.g.S A.p.r.Z.Z.",
"H H.I.V.D p.P.r.e.S.p.D p.D I.S.V.v V.Z.G t.K.0.r.r.8.G.S.n.M L.k.G f.M.B p.0.p.I.>X#...#.4.1.1.[ 2.#.Y , U.S.0.H P.p.K l.k.V n.",
"k.s.t.S.p.V k.9.d.k.r.N H s.j.t.P.r.H k.e.f.q.t.V G j.j.t.L.G q.j.r.n.r.r.S G n.s.*X,.$.,.1.=..XE #.$Xe ~ t.M.l.v g.r.a.l.r.D J ",
"H.G D 0.k.r.J j.m.D C b t.B.D D p.j.H r.j.l.G B z j.n.V G j.f.B t.M.j.C D c A.p.V -X$.2.{.Y #.1.E 2.$XR ^ G D M.t.G t.I.r.C c u.",
"~.J G B M.l.t.J 9.G u.N S.S.0.G 8.j.f.r.r.D r.u.n ~.h.C C f.l.u.G t.B s.r.B (.p.G -X$.2.,.` ..>.o.oXXX( 8 <XN l.S.u.C r.B s.G s.",
"^.M.s.N r.g.t.G B b.N.z l.L.S.t.D p.s.0.r.C N.u.C U.L.B.0.B p.f.N r.r.F.e.C Y.M.B.*X..,.,.}.}.,.}.%X#X_ e 1XB D n.j.V N b.B.N k.",
"r.k.9.H r.N S.l.H p.b r.L.G M.N r.r.D H.p.r.u.k b.B.0.L.c t.0.8.S.G u.r.k I.f.t.B.*X#.,.>.>.4.*X,.}..X_ i 1XB 0.B k.M.G b.C M _.",
"b.S.D x.l.t.J.V B c u.G.r.s.B.B M.p.s.G.z B M b.M.r.j.j.G G.9.S.H.z C N M.M.r.k.p.-Xo.$.$.<.2.` _ ) E ` i 1Xp.G.H I.9.M M u.G.k.",
"F.r.M M.r.r.r.G C s.Q.G x n.e.G n.9.p.9.D B k.~.B b M.C t.j.H s.0.G B k.H.N D k.M *X) o.>.oXE Y .X,.a ^ p 1XB.s.r.t.D G 0.L.u.J ",
"N.J G 9.D r.G r.N F.u.t.t.q.C 9.r.9.H G r.B G.H r.t.p.C G 9.r.G D 0.G S.G r.r.p.D &X( ..o.2.4.) #.}.<.Y 8 4Xr.C r.D r.B d.p.G N.",
"F.r.p.p.s.j.J.V u.u.N e.`.t.e.s.j.p.G.S.z s.r.V t.].e.r.6.;Xp.H.j.N s.r.V n.'.G H %X` X...>.|.p E |.XXf 7 4Xu.B.s.I.G r.p.B G /.",
"x.s.v H.k.J x.0.j.s.N G p.j.u.C G.0.0.n.8.k.y.V q.p.p.y.7X6.<X0.A.9.k.<X-.p.k.r.V -Xg ' X.=...R ` |.|.d 8 4XM.H.S f.p.s.j.V N A.",
"^.t.v p.i.y.F k.s.D r.Y.G M.r.B s.s.8.S A.r.J a.I.0.M.V 0.7X' r.G H.r.r n.A.u.M.M p.=.*.~ ~ 4.*.E 4.XXf 8 4Xp.t.K S k.d.G P /.d.",
"M.t.k.p.G U.p.e.n.f.9.j.M.r.r.j.p.0.U.D i.l.p.G j.n.,X+Xj.7X-./.v p.! l.G n.2 6.t.p.+XOX6.[ i 7 8 <.XXY , 1Xp.9.H.N.D k.d.p.d.G.",
"J S.S.L.9.0.P.9.8.L.t.C p.S L.S.P.v s.P.G p.S.0.G r.>XOX&.5.E.l.V.! # t 4 2 @   9 <Xk.s wXqX,X<X^ ( XX8 ; 5XL.q.S P.a.G Z.p.N x.",
"Z.r.r.n.g.D p.r.k.p.t.V G g.s.q.S.p.+X+X=Xl.r.i.z G n.p.+X7.q.H t . @ < 4 4 4 >     + ,XeXeXeXeX9X' f ! ;Xr.k.j.D p.u.k.k.r.G J ",
"D.G D H n.p.9.s.n.V V M p.M.B D =X! ] =X! -.D V b l.g.N <.g ' # h j $ : 2 : < & $ o 7.eXeXeXeXeXeXqX,XG.r.V D l.p.J p.Z.D G M u.",
"_.0.r.N k.H.p.N C r.b.V G.S.0.OX=Xp.j.r.K s |.s.V T.l.9.<     : q q & & > & & o # | eXeXeXeXwXqX9X0XH _.p.e.N k.H.p.n G H n.V j.",
"P.G.s.M G j.p.3.r N.n.c n.L.5X6Xv q.d.p.r.&.6X:X} ;.u 1 > $ - < > & & & > & % & * 7.0X8X5X/ / ' -.&.6.1X5X-.=XD j.p.J V N.B.M M.",
"D S.G K s.B H.6Xs 5Xz s.G.D ^.N t.t.G J.p.+X<X$   $ $ . @ @ ; - @ @ % & > & o & 4 t 9 2 -     { C c !./ / 6XB p.N l.B.G u.M C _.",
"n.n.D l.k.,X;X5XT & +X,X5Xs.M.G M.p.j.@X} 8 s : - < & + @ @ @ = o @ % & & @ + & 4 :     < g { M 9.H.t.3.=XD s.G.9.L.B N M y.I.p.",
"N.K c 5X3X+X3..X+X[.6.6.] - < ;.6.y 3 t t .   @ > < = @ @ @ @ @ @ @ @ + + + + % - X &.=Xr.H J r.G.s.6.OXp.b b.u.e.9.G G s.W.9.e.",
"n.0.r.H v.p.r.8.K n.0.r.n.3.    . - > > * @ + @ - - X @ + @ @ @ $ o + + + .   + . ; D a.r.G D r.j.G j.s.r.e.J H u.r.e.V j.p.9.G.",
"N.0.y.d.l.f.U.n s.i.M G 2XOX2 . + % % & % + $ @ @ @ + +       + @ @       - ' -X+X=X7.<.&.6.H s.B v G.!.G r.s.G.u.~.H r.r.M V /.",
"x.s.n G.p.V p.p.n.a.H j * $ 0 : . % % & @ + @ @ @ @ + + ! / &       s ] ] s.s.p.V s.9X2X<X<Xn.s.C e.s.n.a.b n.M.N r.s.s.s.D r.Z.",
"/.r.V p.p.a.v S.s.G -   : > : $ X X @ & & $ o @ @ @ > q r.a.5XOXj ; ' G n.S.a.l.M p.q.i.7X{ ;XP J S.p.j.j.M u.t.p.0.w.V.K J /.d.",
"c.g.l.f.H J.3./ '     ; , - $ @ @ @     & & @ @ + . u : j.p.H U.8.e.-.;XD s.s.p.s.j.K =Xs :Xp.g.k.9.k.r.f.k.p.G n.A.H f.j.p.0.H.",
"P l.C.:.&.6._.r.&.8     - % + + @ X s 9       @ @ & -   s U.v l.M.N j.-X=Xs.G i.S.S.M.P H.k.D l.k.D s.B k.M.I.p.N P.r.H C.g.N d.",
"G.q.0.k.k.D u.u.S.r.r.2   @ % & +   [.p.3.3.r   + + 2 3.0.g.t.D t.k.M.D -.! q.n.p.p.k.0.r.t.Z.n.G J N j.u.t.j.k.G u.u.Z.p.9.D J ",
"A.G F D C.f.H p.n.V F n +X    %   o u L s.s.G w     =XN C f.j.0.r.k.q.G P P 3.3.N S =.j.G r.M.H 9.C B S.9.B B S.j.G y.k.N G M s.",
"'.a.r.N s.S.t.n N @./ ,X3.  = =     4 r.G v s.x.5.9 q p.9.t.n.j.N G B ] E.S `.j.-.S W.&.s.b C C B.9.G `.f.u.c j.P.p.z N H G.H a.",
"M.F.p.M G 0.k.s.5.,Xa.+Xp - 5X1X! < q j.t.9.M.G 8.I./ { &.N t.r.s.e.r.W.&.u.S.k.F.B M 3.p.r.G x.B.z k.I.M.n.c B t.s.p.V n.x.z G.",
"H G.G u.j.B P.s.z.G B -.$ <.H.v s.t.9.Y.e.r.G z L.s.G S.x n.{ T !.C r.B M !.0.t.M.B n.D k.H.B r.V G U.D k.r.9.k.B S.M.F r.N r.(.",
"M.n.G M.k.s.k.z F R.3.=X5Xk.d.G B.t.k.j.z V B L.s.C n.u.r.W.J I.u.c B H U.0.9.M.r.p.H.9.H.9.N N r.I.G t.M.D x.G.0.C.B B V s.G.P ",
"k.e.N j.G e.V H F H.G.N B s.V G s.H e.G r.B H.n.N V b.N 0.s.H G C r.G Q.k.N V j.c t.0.9.G G K r.L.0.N J u.b s.H D D 8.G b.B.G y.",
"F.r.r.H r.p.a.J D j.G s.I.p.K y.9.t.a.u.J G j.C j.G.0.9.r.0.p.p.r.H J b.J j.S.t.r.H 9.s.x.e.C u.p.H k.l.r.r.H J p.a.H F s.r.r.!.",
"n.K e.M.S.p.~.N s.p.z C (.r.e.e.S.s.n.I.b n.r.b J '.D 0.r.U.t.G.M.M k.9.m t.`.C J a.!.0.U.s.H x.C N l.U.G J k.!.u.~.0.r.j.M M U.",
"s.s.b n.d.S r.j.t.0.H x.J k.u.N n.r.C p.j.r.H r.b.r.j.r.r.S.D D j.s.r.G s.s.t.s.N p.l.V C n.n.r.B u.y.j.s.v k.k.C G j.s.u.D i.s.",
").x.y.M.c.F.P H.F.y.d.(.x.F.u.p.Z.c.F.G H.N.z.k.U.j.G.P x.b.c.F.J G.c.a.S.G.N.F.P n.s.N.b.r.H.x.a.!.N.N.F.L n.x.v.x.x.G.z.d.(.F."
};
