/* XPM */
static char *_de9c1e8beeb4471e85b4e9a12585a05nYnFV5xaw292J4e0[] = {
/* columns rows colors chars-per-pixel */
"64 64 234 2 ",
"   c #0C1405",
".  c #191714",
"X  c #1E1D1B",
"o  c #19270C",
"O  c #23291B",
"+  c #27341B",
"@  c #262323",
"#  c #292924",
"$  c #2C2729",
"%  c #2E2A2A",
"&  c #312D2D",
"*  c #2C3326",
"=  c #32332D",
"-  c #353C2A",
";  c #332F30",
":  c #353332",
">  c #3A3434",
",  c #383935",
"<  c #3B3B36",
"1  c #3D3B39",
"2  c #423D3C",
"3  c #483F3F",
"4  c #2D4719",
"5  c #31471D",
"6  c #305118",
"7  c #346C0C",
"8  c #38710E",
"9  c #386F14",
"0  c #3B7414",
"q  c #3F7815",
"w  c #3D751A",
"e  c #3F7B1F",
"r  c #374A29",
"t  c #3C562A",
"y  c #3E4537",
"u  c #427B16",
"i  c #43761E",
"p  c #437C1B",
"a  c #44423D",
"s  c #47493D",
"d  c #49583B",
"f  c #446929",
"g  c #447423",
"h  c #467D21",
"j  c #497D25",
"k  c #497729",
"l  c #4C7C2B",
"z  c #4F7A2F",
"x  c #4B633A",
"c  c #537938",
"v  c #473F41",
"b  c #454241",
"n  c #4B4444",
"m  c #4C4A46",
"M  c #4E4648",
"N  c #4E4A49",
"B  c #504847",
"V  c #534D4C",
"C  c #4E5447",
"Z  c #525547",
"A  c #54524D",
"S  c #535B4A",
"D  c #564F50",
"F  c #545251",
"G  c #5B5453",
"H  c #575953",
"J  c #5B5A56",
"K  c #5D5B5A",
"L  c #615956",
"P  c #635C5B",
"I  c #685F5D",
"U  c #56654A",
"Y  c #5C7647",
"T  c #5C6255",
"R  c #5E6956",
"E  c #5F7350",
"W  c #60784C",
"Q  c #64615E",
"!  c #6A625F",
"~  c #606A58",
"^  c #67765A",
"/  c #675F60",
"(  c #656362",
")  c #6B6362",
"_  c #696B65",
"`  c #6C6966",
"'  c #6D6B6A",
"]  c #716765",
"[  c #726966",
"{  c #756C6B",
"}  c #796E6D",
"|  c #6E7565",
" . c #74746C",
".. c #7B716E",
"X. c #776F70",
"o. c #757271",
"O. c #7D7473",
"+. c #777B72",
"@. c #7D7975",
"#. c #7D7B7A",
"$. c #817674",
"%. c #837976",
"&. c #827778",
"*. c #857B7A",
"=. c #897E7D",
"-. c #47801D",
";. c #4A831D",
":. c #4F891E",
">. c #4A8324",
",. c #4C8424",
"<. c #4F8924",
"1. c #4D842A",
"2. c #508726",
"3. c #538C25",
"4. c #52842C",
"5. c #548C2C",
"6. c #598E2E",
"7. c #5A9527",
"8. c #57902C",
"9. c #5A932D",
"0. c #538332",
"q. c #568B32",
"w. c #5B8E34",
"e. c #5C873A",
"r. c #5C9333",
"t. c #5D9536",
"y. c #629B2E",
"u. c #618E3D",
"i. c #639B34",
"p. c #659937",
"a. c #61953A",
"s. c #659C3B",
"d. c #64A02E",
"f. c #6AA439",
"g. c #6BA23C",
"h. c #5D8441",
"j. c #65894A",
"k. c #6A9946",
"l. c #6C8658",
"z. c #708E5A",
"x. c #749B55",
"c. c #6CA342",
"v. c #6AA044",
"b. c #73AA46",
"n. c #7AAE53",
"m. c #7A8B6C",
"M. c #7CA561",
"N. c #84817D",
"B. c #8B817E",
"V. c #849775",
"C. c #84A769",
"Z. c #8B7F80",
"A. c #8D8382",
"S. c #8A8685",
"D. c #918684",
"F. c #988785",
"G. c #948986",
"H. c #958B8A",
"J. c #9A8E8C",
"K. c #94918F",
"L. c #9B918E",
"P. c #9B8F92",
"I. c #9D9392",
"U. c #9A9896",
"Y. c #A0918E",
"T. c #A29693",
"R. c #A39996",
"E. c #A79997",
"W. c #A59C9A",
"Q. c #AA9D9B",
"!. c #A4A19F",
"~. c #ABA19E",
"^. c #B1A29D",
"/. c #A5A3A2",
"(. c #ADA3A2",
"). c #AEABAA",
"_. c #B2A5A4",
"`. c #B5A9A5",
"'. c #B6A8A6",
"]. c #B6ABA9",
"[. c #BAADAB",
"{. c #B6B1AF",
"}. c #BEB0AE",
"|. c #BBAFB0",
" X c #BCB3B2",
".X c #BBB8B7",
"XX c #C1B1AE",
"oX c #C3B5B3",
"OX c #C4B9B6",
"+X c #C9B9B6",
"@X c #C5BBBA",
"#X c #CABDBB",
"$X c #C3C1BF",
"%X c #CDC1BE",
"&X c #D0C2BF",
"*X c #CEBFC0",
"=X c #CDC3C2",
"-X c #C8C5C4",
";X c #D3C5C3",
":X c #D5C9C6",
">X c #D9C9C7",
",X c #D6C7C8",
"<X c #D4CCCA",
"1X c #DBCDCB",
"2X c #D6D0CE",
"3X c #DDD1CE",
"4X c #DFCFD0",
"5X c #D5D3D3",
"6X c #DCD4D3",
"7X c #DCD8D6",
"8X c #DCDAD9",
"9X c #E0D1CF",
"0X c #E3D5D3",
"qX c #E4D9D6",
"wX c #E8D8D7",
"eX c #E5DCDA",
"rX c #EADBDA",
"tX c #F0DDDC",
"yX c #E5E1DF",
"uX c #EBE1DE",
"iX c #F0DFE0",
"pX c #E7E4E2",
"aX c #ECE5E3",
"sX c #EEE9E9",
"dX c #F2E5E4",
"fX c #F2EAE6",
"gX c #F4EDEB",
"hX c #FAEBEB",
"jX c #F5F2ED",
"kX c #F8F3EE",
"lX c #F6F3F2",
"zX c #FAF5F3",
"xX c #FDF9F6",
"cX c #FEFDFD",
/* pixels */
"w.p.g.p.h s.s.3.6.p.q.q.t.5.s.f.y.j c.i.5.r.s.,.r.r.9.s.g.t.1.b.Y ' _ _ N H j.w.s.y.6.4.b.5.5.y.i.,.a.5.t.g.t.<.9.c.5.5.t.r.>.v.",
"p 6.3.g.3.q f.;.p y.4.q ,.-.9.6.g.u ;.d.u 3.7.<.u p 3.9.9.g.g Y | $X$X@XW.2 y Y a.y.i.0 i.3.u 7.3.p ,.p 8.6.f.9.8 d.<.-.t.3.u >.",
"s.,.j 3.7.-.>.5.p.;.c ~ H H N ^ r.8.-.>.9.i.-.-.7 <.i.-.p 9.e.Q .XcXfX%XeX(._ V Z l 7.:.h 3.y.8.g j i ^ H H A _ h.-.3.f.<.p u j ",
"f.p p u 7.8.>.1.y.k S G.K.K.) & U w.3.>.4.5.p e 0 g.3.i f f d #.pXcX0XE.D.Q.pX(.# y e.9.p 1.9.p 1.k x @.U.H.o.= Z c 1.8.0 -.0 5.",
"b.8.5.0 :.t.5.9 z ^ W.cXjX0XiXA.1 A l.h e w q.q.0 b.C.l._ K N.7XkX>X>X#XH.$.@X[.V & 5 i.<.7 q >.k.^ m.sXcXqXtX'.b b E f >.v.u 3.",
"9.i.>.q -.-.w.0.x _ 5XcX3XT.Q.}.@Xo.$ x q.>.t.9 5.z.V @.8X<X;XcXfX^.oXoXJ.A.D.I B > o z <.8.g 0.Y ~ ).cXdXQ.T.[.$XH.: y e.5.7 c.",
",.a.u 4.k.e.^ y T ).gXgXqXoXB.%.eX<Xb ; t >.w e n.2 G 8XxXoX@XxXaX#XwX#X$.=.J.@.V n - d v.x.E y C K.pXlXeX#XJ.} -XpX) % r i 8.g.",
"a.5.q x.m. .!.W.{.zXjX'.oX#XE.*.H.$.D & o w h b.V.#.8XcXoXJ.6XcX1X].dX*X=.A.H.J.) n & C V.| U././.pXcXOX'.;X(.=.D.=.L 2   0.t.h ",
"w.p j U > /.cXeX:XxXdX}.&X+XB.B.J.] n 3 * x k.4.K <XcX>X=..XdXoX^.#XdXoX*.D.o.&.$.G # J : *.lXfX&XgXzX+XoX;XH.*.I.O.B 3 & d l 5.",
"s.4.M.A ).cX1XF.OXcXyX#XfX&X*.*.J.H.I B & C 4.i Z 8XxXQ.I -XaX_.'.[.#X:XH.H.=.P *.$.> V Z.xXaXT.~.zXgX#XeXeXF.O.H.J.} V : , c b.",
"w.4.|  XcXrXL.'.gXyX}.].dX#XB.D.*.D.O.B $ U ,.w a 5XzXE.I T.gXaX_.=.T.qX:X=X#XA.=.[ n > o.lX_.T.uXsX+X'.1X0XF.Z.=.D.*.G $ y g g.",
"a.j n 8XcX[.) $XsXE.Q.#X0X#XA.A.$.) %.[ & S k.^ @. XeX;X} D.aXoX} ' _ _ N K  X=XoX*.b ; ` 1X{ W.lX].Y.#X1X1XL.*.=.) $.$.> < z.6.",
"c.,.s 6XcXT.P '.fX>X[.P.E.0XoX_.(.{ *.O.n 1 ^ ' I.3XqX[.{ =.R.@.{ .X-XOXQ.2 V @.J.E.G & #.OX) H.aX7X}.E.I.;X;X(.].*...*.A > d w.",
"0.k.T @XdX+X{ Z.gXeXJ.O.I.1X1X;X0XoX~...n ; S n E.3X].$.F o.T.( @XcXdX#XwX(.' V A ) ] & G _.Z.} 0XhXQ.%.D.&X0X;X9X%X'.B.D 2 O w.",
"k. .J.#X0X;XO.=.@XL.{ $.].+XQ.L.*X X'.U.V ; V @.qXR.$.@.N ' @.#.pXcXqXE.A.Q.pX/.$ n o.K > { D.X.}.~.{ O.E.#X_.J.XX#X[.(.I ; # j ",
"x.V J.eX;XG.I ..J.L.H.A.[.:XT.&.E.*.! B.) % N @X<XH.L.' ` K S.7XlX<X1X@XJ.$.@X[.V % 2 { & K ) ] G.L.H.D.Q.>X_.$.L.H.I %.$.2 * f ",
"T G $X}.G.O.m B.4X,X].W.(.(.Z.S.A.*.G / $.n 1 J.J.Z.V @.7X<X;XcXfX^.oX+XJ.A.F.I N > % o.: v D ` =X9X[.(.!._.D.*.D.Z.I G %.G 2 5 ",
"A ].uXH...! C }.hX*XI.o.J G F S.K.H.D.X.o.] : V K.v K 8XxX X@XxXdX#XwX#X&.=.J.O.V n : F N : ; P.hX:X(.@.J H F o.I.H.J.@.X.X.n o ",
"a  X_.A.B.a A oXQ.*.o.K K K > b D.H.Q.@.{ %.: F K.#.eXxXoXP.7XcX1X'.dX#X=.A.H.J.] n & n N & % (.|.%.$.( K K b : Z.D.Q.S.{ A.n + ",
", ! G.B.] a ) H.I.#.o.-X<X-X|.b n o.H.R.H.} 1 V K <XcX,X=.oXgXoX^.#XdXOX*.A.O.*.$.V $ F 1 F o.D.H.H.` ).7X=X@X/ : _ G.P.I.%.V : ",
", v @.Z.V 2 ..~.[.' {.cXeX'.:X_.' b G S.%.2 G @ n 8XcXQ./ $XaX(.`.[.#X;XH.F.*.P *.o.> V F _ o.P.oXZ.K.zXjX}.#X#X@.n M $.H.n N , ",
"= J P o.%.B o.H.@.@.8XcXrX_.D.T.pX X> v ( b b % 1 7XxXR.) E.gXiX`.%.T.rX:X%X%XA.=.[ B : v D ` S.S.' .XcXjX}.H.F.5X5XD & K V M > ",
"S = 1 N S.o.Q m  .7XxX1X1X@XT.$.`.(.V ; $ n F +.%. XrX;X{ A.aX+X%.*.(.;X+XoX1X;XoX%.3 & _ O.' B ( .XcXqX:X;XQ.%.E. X) > X V & T ",
"e.4 * T N _ yXfX0XxXuXQ.[.OXF.D.H.` M > O 1 ^ ' I.1XwX'.} =.R.D.$.O.].#XJ.=. XI.J.E.L V K A -XgX5XgXgX[.Q.#XT.=.J.O.V 2 X < - k.",
"s.,.c n ( pXfXE._.kXfX>XrX#X*.=.I.&.V M & C E b T.6X[.O.F o.^._.W.L.'.:XU.=.J.$.V { { G B -XzX'.Y.uXxX1X0X1XF.$.P.S.G B = 1 j.r.",
"k.5.V.*.eXzXoXQ.yXcX;X'.dX;X=.*.D.P.} M $ U A %.qXR.$.o.M E.hX1X].W.E.A.{ H.D.S.{ ) I.@.-XxX:XQ.2XcXqX].1XeXH.&.D.P.*.D & 2 k.t.",
"p w.S 5XcX%X=.].aX%X].XXwX#XB.H.*.} } G % S C @X:XG.%.V D #X<X(.J.S.D.{ O.T.I.J.T.o.v ).cXwXH.U.aX1X'.[.1X4XH.D.Z.} $.) & y k r.",
"r.4.Z 5XcX_.P $XsXE.~.OX;X;XJ.H.Z.] =.$.> C 1 L.J.B.$.2 L (.S.` H K F *.O.=.H.H.E.Z.V ).cX:XI E.zX].P.+X#X,XQ.A.F.{ $.B.v 1 W j ",
"g.l s 2XzX~.) J.gXhX[.O.H.wX;X%X=XD.A...M : : V B.B.G n  .D.o.#.Z.Z.V & { D.~.T.A.Q.K /.kX+X..%.6XzX#XB.%.:XqXOX;XR.B.*.G > $ k ",
"C.Y  .OXrX;X} =.eXoX$.%._.&X+X+X4X:X[.*.M & : B { *.L 2 =.*.U.lXsX0XrX} 1 ( Q.;XE.S.] (.0X0XH.[ <X1X*.$.R.%X&XoX,X1XoXK.G > $ 4.",
"C.) E.:X1X}.{ *.Q.B.O.%.[.%XH.%.].T.I.E.G & > A B ! %.N ` _ 5XcX2XT.]. X/.( ; U.).' D.#X:X#X&.} E.J.$.*.E.&XE.$.Q.(.J.E.{ > * 2.",
"Y Z E.3X}.O.G ..~.'.~.L.].#XJ.*.J.} n { ..> m O , m C > K /.sXlXwX}.=.B.pX<X2 : ( n $.>X@XF.L _ T.].~.T.W.%X~.%.H.*.V P %.M = z ",
"C O.qXE.O.{ M U.hX4X].W.T.D.@.J.S.D.{ / @.G : d m. .K.A.~.kXjX[.@X#XE.*.J.=.D ; b J <X[.O.%.N @.tXrX XQ.R.H.@.A.H.S.@.P O.) 3 + ",
"m %X3XB.$.A V #X1X~.I.D.D.[ [ I.J.J.Q.O.{ O.1 J > U.cXaX3XxXuX].#XoX=.D.H.) n 3 b (.eXL.%.` 2 ~.wX(.E.A.D.X.) F.T.J.Q.B.{ *.b o ",
"y L.J.B.*.2 J ~.D.$.*.G.T.$.] *.H.D.T.D.*.*.' n U.cX6XD. XcXuX=XfX#X%.*.J.D.L n : *.T.B.F.B n T.P.O.*.Z.I.S.] @.H.D.I.J.*.A.N * ",
", m B.*.G 2 { H.|.].@.K V F 1 ( ~.T.Z.~.H.K o.).cXdXE._.jXfXoX'.dX#XB.D.=.H.O.n : 2  .A.) 2 ! A.Q.oXA.` F V b N T.Q.A.T.E.! B < ",
"= A  .*.( b @.@XqX~.) U.!.~.@.> O..XP.*.o.> M eXcXXX[ @XpXQ.^.#XqX+X=.S.O.] $.) & b ( *.} n _ [.4X@X' S./.U.H.2 J ]._.$.%.M n > ",
", N V ) *.F %.%XT./ U.sXyX&X0XS.v F Z.M G M n 7XcXT.L  XfX#X'.E._.0X'.~.E.` *.O.: m A G A.G ) oX].{ #.pXlX:X4X_.M b #.J V V 2 2 ",
"W # # % = % ( H.{ ( 5XcXrX~.Q.].@XS.; b F M D -XhX[.[ S.lXtXT.O.P.0X3X:X9X].T.} G ; @ @ : % N S.*.( /.cXkX'.E.].-XW.v 1 M v # ^ ",
"j f f f C N n ; H {.lXsX0XoXH.=.5X@Xn : n ` H.#XwX;X..A.=XT.{ $.~.@.K K F K.[.J.B % + 4 c C N : N K.sXjXeX#XI.%. X5X) & $ : 6 r.",
"i.,.>.x.| ! {..X$XkXfX^.XX+XT.=.I.$.V & J D T.0X>XJ.) $.L.D.S.Z.=.( K ( : b o.S.I $ r z m.K U.-X.XuXzXXX^.#XQ.=.P.D.L > X Y i h ",
"i.u l Z 2 {.xX@X}.zXgX+X>X#X=.A.P.] M v N V oX#XL.o.B *.;X%X_.S.#.-X<X=X|.n 1 ( *.3 - R : G.lX2X^.uXxX>X*X;XJ.%.I.&.M M $ d g 1.",
"b.2.M.G ].cX3XW.<XcXqXoXaX;X*.$.J.J./ m B (.aXG...) N {.hX;XJ._ .XcX8X].:X_.{ b F P J Q H.lXuX~.OXcXfXoX0XeXF.O.D.I.} V = 1 1.5.",
"g.p._ .XcX0XY.~.uXdXoX].wX#XD.H.Z.Z.} M b @X[.A.*.2 G oXI.Q ( %.yXcXrX_.A.I.pX X: N A U.gXdX_.I.3XjX;X'.;X0XH.S.D.Z.@.G & a g r.",
"p w.Z 2XcX X[ -XsXJ.T.;XwX#XA.B.$.} B.[ > { G.A.{ B H.K.( m @.8XzX<X1X#XT.$.].W.V & @ (.cX0X} Q.xX~.F.#XwX,XJ.%.%.} *.$.> < h.b.",
"r.a.s 5XzXE.Q ~.dXwXoXA.I.qX[._._.} *.O., b %.B.F ` M { pXsXqXxXuXQ.XX}.G.D.H.] M > @ U.cXoX] D.yXuX#XI.A.1X;X~.[.%...A.G > s 4.",
"k.0.G %XhXOX{ B.dX6XH.%.Q.1X3X;X0XoXE.} ; J ) @.S.1 ` fXsXY.(.lXfX1XuX#X%.=.T.$.B B : ( aX;XA.} 6XdXT.*.L.&X0X;X6X&XQ.*.D 1 # i ",
"M.{ T.oX1X;X{ =.@XJ...%.[.#XL.H.oX}.[.U.b 1 a G H.S.aXzX[.~.aXcX&X'.uX%XB.*.D.J.{ n % ' #X0XD.{ oX~.} %.E.%X~.D.].oX X_./ : * r.",
"z.G L.eX;XA.I O.J.I.J.=.].;XH.&.E.o.G B.{ X X O N 5XcX#X*.}.aX#X_.oXwXOXA.H.%...} G % X.<XE.) { G.L.L.S.T.;X~.$.I.A.G O.*.3 * e.",
"C G #X[.B.{ n A.0X:X].Q.(.(.D.F.A.=.G P ..n = 5 Z 7XcXQ.P -XsXE.Q.oX;X;XJ.F.D.` B.o.> K A.*.V ] ;X0X[._.Q.(.L.A.D.A.! G ..L 2 5 ",
"N {.uXA.} ! V oXdX+XE.J.H.] ! L.H.J.J.X.@.{ & t Z <XzXQ.) J.gXhX].O.H.rX;X%X&XD.F.} B ; 1 o.n U.hX:X_.H.J...P D.P.H.T.$.X.O.n o ",
"s }.~.D.*.2 G  XQ.*.*.S.H.$...H.J.H.Q.=.} $.m J @.+XrX;X} B.rX X$.%.'.&X#XoX9X;X[.*.n & n V 2 (.'.$.A.*.F.*.} A.J.H.E.H.} =.M + ",
", J N.B.) 2 ` G.I.J.=.J.^.*.{ A.T.J.A.E.G.` ` ( R.<X,X[.{ %.Q.=.$.*.[.#XH.%.].T.L.U.G & b a L D.J.I.=.H.Q.J.[ @.T.I.D.I.T.O.B < ",
"< a @.B.L a O._.6X#XF.H.E.$.I.].+X#XG.I.=.1 P M E.6X]...G @._.'.~.J.].#XJ.*.F.{ n [ ..> < : [ T.*X1XJ.D.Q.B.A.].oX#XT.H.H.M N 1 ",
"= G P ..$.M %.1XOX=.A.Z.} } U._.^.dX^.G P 2 N *.rXT...{ n E.hX1X].W.E.B.O.L.A.G.{ ! $.G : % ! $X;XJ.*.G.} } D.'.Q.0X=X) L n b > ",
"U > : 2 J a { [.B.L O.[ L $.T.T.o.E.G.2 M n N =X<XA.@.V V ;X,XQ.J.A.D.] [ I.J.I.R.O.{ O.$ $ J _.E.L ] $.G [ J.Q.*.H.E.V n n & T ",
"u.6 + + O . n *.B.D.%.) *.oXhX:X) 3 V 2 $ % , L.J.D.$., P Q.D.O.*.H.T.$.[ *.J.D.T.D.*.$.: @ b O.B.B.B.! .._.dXuX%.3 B n & $ + k.",
"p r.i h k R : : M ! Q H { I.{.S.1 % & 3 S U , m *.Z.D 2 { H.}.].B.J._.*.%.I.'.T.=.(.H.G N : % : a L ` G ( H.}.U.B $ $ < A U k b.",
"p.r.e r.9.5.7.7 i 0 a.5.q 9.5.p t.<.9.8.7 w = A } B.) a %.%XqX}.F.H.J.$.~. X+X0XJ.%.} > B $ X 0 ;.f.p ,.t.p r.t.;.i.u u w 5.p.j ",
"r.-.0 t.p p p p q s.i.q q 8.p i 8.-.>.w >.q , N V ! *.F *.%XY.! *.%.P } A.I.H.0X(.n G n 1 H l.1.d.;.0 >.3.7 5.p p u u p w.a.p 1.",
"a.,.,.p -.5.5.h e 9.p 5.f.<.h >.-.>.5.1.p u Y O @ % = & ) Q.H.{ } I I H.oX[...} { n a > - z.q.5.5.p 9.9.,.>.p >.5.5.>.w 2.>.<.g.",
"9.>.p p.i.3.g.0 3.3.7 w b.,.>.>.g.5.9.f.7 r.>.6 6 c 4 X 1 ) { A.*.{ H.;XxX#XG 1 b < @ , e.q.p 8.w 0 9.f.p h 9.c.<.g.p <.9.8 9 g.",
"5.8.8 r.5.i ,.8.<.;.p 8.-.r.,.q 9.,.e 3.9.>.>.>.w.;.q.V.: X = b n 2 N ( X.D % $ @ N l.z p r.q.>.u 5.9.5.8.8 9.5.w e 9.5.,.u <.3.",
"b.w.1.t.w.a.,.i.a.4.9.b.q.t.,.5.r.w.a.p s.a.4.9.g.6.a.j q.r.w.a.h s.r.4.s.s.w.t.j w.w.r.t.>.g.q.4.c.t.t.a.>.t.q.t.q.t.s.0.8.b.a."
};
