/* XPM */
static char *_d7f27f9e9d941fdf3edfc2d761e5e13f5urOEdzYxGwhOqu[] = {
/* columns rows colors chars-per-pixel */
"64 64 239 2 ",
"   c #000A25",
".  c #01142C",
"X  c #001433",
"o  c #021B33",
"O  c #071C36",
"+  c #041D3A",
"@  c #091F3A",
"#  c #012136",
"$  c #0D2737",
"%  c #04213C",
"&  c #0B243C",
"*  c #16273C",
"=  c #132B3C",
"-  c #173431",
";  c #17333B",
":  c #262C39",
">  c #26353C",
",  c #76350C",
"<  c #773114",
"1  c #326B06",
"2  c #346C0D",
"3  c #37710E",
"4  c #39720E",
"5  c #366E12",
"6  c #386F15",
"7  c #377111",
"8  c #3C7414",
"9  c #3F7815",
"0  c #3D7619",
"q  c #3F781A",
"w  c #2A4B3A",
"e  c #2B5231",
"r  c #417615",
"t  c #427B16",
"y  c #41761B",
"u  c #437C1B",
"i  c #487F1A",
"p  c #51583D",
"a  c #7B592A",
"s  c #467D21",
"d  c #497E23",
"f  c #4A7E29",
"g  c #406C3F",
"h  c #091E45",
"j  c #052341",
"k  c #0C2543",
"l  c #0D2A43",
"z  c #082849",
"x  c #0D2B4B",
"c  c #122643",
"v  c #1B2543",
"b  c #142C44",
"n  c #1B2D45",
"m  c #12264B",
"M  c #142C4B",
"N  c #1A2E4A",
"B  c #0C3449",
"V  c #153146",
"C  c #1B3345",
"Z  c #15334B",
"A  c #1B334B",
"S  c #153A4A",
"D  c #1D384B",
"F  c #0A2B51",
"G  c #152B52",
"H  c #073050",
"J  c #0F3251",
"K  c #133352",
"L  c #1C3252",
"P  c #1B3957",
"I  c #242D45",
"U  c #223A46",
"Y  c #253844",
"T  c #21344B",
"R  c #243C4C",
"E  c #293D4A",
"W  c #343B4B",
"Q  c #222C54",
"!  c #243C53",
"~  c #273B56",
"^  c #0D4655",
"/  c #124C56",
"(  c #134D5A",
")  c #0E5156",
"_  c #0D545C",
"`  c #0C595D",
"'  c #11525B",
"]  c #125459",
"[  c #294748",
"{  c #314A47",
"}  c #3C554B",
"|  c #3A554C",
" . c #294157",
".. c #2C445C",
"X. c #34435C",
"o. c #344C58",
"O. c #3C5554",
"+. c #3E5953",
"@. c #3B575C",
"#. c #386358",
"$. c #0D5863",
"%. c #165262",
"&. c #2D4361",
"*. c #334762",
"=. c #3A5565",
"-. c #0C646C",
";. c #09696E",
":. c #0C6672",
">. c #096D75",
",. c #116870",
"<. c #067579",
"1. c #396266",
"2. c #465949",
"3. c #445C4D",
"4. c #575649",
"5. c #415656",
"6. c #445C54",
"7. c #495D54",
"8. c #445C5A",
"9. c #485A58",
"0. c #4A644C",
"q. c #456153",
"w. c #4C6453",
"e. c #49635B",
"r. c #536D50",
"t. c #5E7A59",
"y. c #667E56",
"u. c #637E5B",
"i. c #455765",
"p. c #525C72",
"a. c #597065",
"s. c #657D63",
"d. c #862A04",
"f. c #8C2C01",
"g. c #972D00",
"h. c #863406",
"j. c #943404",
"k. c #873916",
"l. c #A03302",
"z. c #87551A",
"x. c #915118",
"c. c #895825",
"v. c #886925",
"b. c #986424",
"n. c #977539",
"m. c #927E48",
"M. c #498217",
"N. c #47801C",
"B. c #49821D",
"V. c #4E891E",
"C. c #538B1F",
"Z. c #478021",
"A. c #4C8423",
"S. c #4F8824",
"D. c #4D852A",
"F. c #4F8829",
"G. c #508725",
"H. c #528B25",
"J. c #598F27",
"K. c #51862A",
"L. c #548C2B",
"P. c #598E2D",
"I. c #569126",
"U. c #5A9426",
"Y. c #5E9926",
"T. c #57902B",
"R. c #5A942C",
"E. c #5E992C",
"W. c #4F8130",
"Q. c #568D31",
"!. c #558834",
"~. c #598E32",
"^. c #5C9433",
"/. c #5B9434",
"(. c #5F9932",
"). c #5E9539",
"_. c #61972F",
"`. c #619C2E",
"'. c #619634",
"]. c #629B34",
"[. c #689F37",
"{. c #61953A",
"}. c #649C3A",
"|. c #689E3B",
" X c #65A134",
".X c #6AA335",
"XX c #6BA736",
"oX c #67A03A",
"OX c #6BA33C",
"+X c #6EA93A",
"@X c #5D8B5A",
"#X c #6B8C4F",
"$X c #689C43",
"%X c #668657",
"&X c #6A8655",
"*X c #6C8A55",
"=X c #65815B",
"-X c #6A845D",
";X c #6D895B",
":X c #738B56",
">X c #74865A",
",X c #738C5B",
"<X c #769259",
"1X c #6BA343",
"2X c #6CA442",
"3X c #73AC44",
"4X c #73A948",
"5X c #77B245",
"6X c #79A656",
"7X c #658462",
"8X c #6B8462",
"9X c #6E8B63",
"0X c #728B61",
"qX c #769163",
"wX c #94864A",
"eX c #8A995D",
"rX c #8CA35D",
"tX c #96A65C",
"yX c #A7B05C",
"uX c #8B9C64",
"iX c #879B68",
"pX c #959C65",
"aX c #8DA263",
"sX c #8BA569",
"dX c #94A463",
"fX c #95A963",
"gX c #9BAB64",
"hX c #95A56B",
"jX c #97AA69",
"kX c #99B267",
"lX c #8DAF72",
"zX c #95AC73",
"xX c #A2AC69",
"cX c #A1B065",
"vX c #087C81",
"bX c #038483",
"nX c #098282",
"mX c #028985",
"MX c #048D8A",
/* pixels */
"~.|.|.'.d [.[.L.P.'.!.!.).F.[.OX^.d 2X].L.^.oXD./.'.L.[.oX^.D.2XR.!.).oXZ.).Q./.OX`.P.W.4XL.P.^.[.A.).K.{.OX].D.R.2XK.P.).^.D.1X",
"i P.J.OXS.9 [.i B.'.K.0 S.N.^.J.XXM.Z. Xt H.R.A.8 N.H.^.R.OX0 K.R.u T.R.A.Z.u H.R.E. X8 (.L.t Y.I.t D.u T.R. XR.4 `.S.u (.H.t d ",
"[.D.d G.U.N.A.L..XV.s 7 B.(.u u C.U.i V.R.`.M.A.- w ].B.n & Z A $ 0.R.q A.4 H.T.N.A.U.B.u F.`.I.u s 8 T.H.B.S.R.B.B.L.[.S.t t s ",
"[.u u t Y.T.D.D.J.r u 0 R.E.9 q A.T.S.B.lXD.u q . c H.7 & o l l .  .N.F.u 7 OXV.W.8 E.Y.Z.D.U.u W.q q oXt 8 7 ].].d A.L.8 A.7 P.",
"5XL.L.7 V.].K.6 6 F.}.7 (. X/.S.9 H.E.N.w e g L S C { { n V Z Z V A [ { L [ E A X V S.].H.2 q s $Xs s 5XR.L.8 L.].J.2 7 A.1Xt L.",
"~.].D.8 N.t T.^.q ).Z.9 oXH.}.q t S.t R.* o % k A V & & A V Z Z A Z l % j k % z l @.9 M.V.T.u P.Q.2 (.Y.R./.7 u N.H.^.0 /.K.1 1X",
"A.{.t L.R.t oXS.Z.7 q ].R.N.(.7 T - e c G N m m N Z x x K J Z A Z x M M M N % ..Q.9 (.t R.{.8 u 7 S. Xu /.S.N.^.9  XR.8 u 8 Q.OX",
").L.8 ).P.T.T.7 q u oXH.4 /.L.N.A X - M G N D S A G R E > I A A S D A A D D %  .u T.].N.].N.t 7 L.oX9 S.T.7 (.(.B.R.8 u 8 R.^.s ",
"P.i 7 L.u s y A.9 oX/.9 t L.* . b A 6.+.b M #.#.x L eXn.f.< m H O.5.8.5.q.@.+  .7 S.i u 0 u u D.}.A.9 i S.7 L.t N.q A.u ^.^.9 L.",
"$XS.H.B.A.P.^.y q T.q T.2XL.! & M A 8.3.; U 2.p * : m.n.g.f.> V 6.w.7.7.0.} h  .Z.A.A.L.~.A.t F.Z.t (.oXS.D.Z.A.P.^.u 9 S.i D.2X",
"P.S.u }.R.G.OXr Q.L.5 8 OXD.A.s L & @.i.=.2.h.h.d.j.b.z.d.f.x.a y.u.2.O.w.| x G = o.4Xs }.^.u ^.t 8 R.oXu s /.OXN.|.B.H.R.7 5 OX",
").S.2 ^.L.r t _.F.Z.Z.E.t /.D.8 ~ $ 0.w.9.4.f.f.h.h.x.x.h.k.b.n.,X&X0.9.9.+.U Z X K I.t r L.R.s u R.H.L.K.2 Q.Q.0 9 R.L.A.u ^.P.",
"1XA.S.H.D.].t H.[.Z.Z..XI.P.s H.P $ v.x.j.g.f.h.7.2.f.l.n.wXdXdXjXpX,X7X6.5.8.O.@ ~ i R.R.4 ].H.Z.^./.L.T.B.H.B.'.H.i ].D.D.OXE.",
"d ].].R.q R.`.M.V.(.S.B.R.t (.].K v c.z., h.f.x.@.O., x.wXwXtXtXfXrX>X-X7.5.q.+.$ ~ L.y OXH.i I.(.q Q.M.U.`.R.M.V..XA.i E.L.t ].",
"P.I.S.OXF.9 (.N.Z.R.F.7 M.S.{ ; m z * c x > x.c.C Z h I 7X<XpXtXdXaX:X=X9.6.7.+.% ~ [.4 _.L.B.^.S.N.Z.u I.H. XR.5 '.S.B.Y.D.t f ",
"[.u u V.Y.M.B.L.|.A.u 5 B.].l X U ! A S m W b.c.V z F T s.>XdXdXdXdX:Xu.6.5.q.O.@ ! R.V.i K.|.L.8 u 8 (.C.t B.R.A.d H. XV.q 8 f ",
"OXu s 9 (.R.B.Z.D.q D.6 (.6Xl = dXkXjXpXd.d.x.a V H h n } 7.sXfXdXdX>Xu.= b e.O.b b & i.N.s P.q F.q u +XB.9 7 ].].B.s F.0 D.0 Q.",
"4X/.T.8 A.(.S.0 6 D.).8 (. X[ = uXrXzXpXj.h.b.c.: ; P [ 2.w.hXfXhXaX:Xu.C C 8.8.D A   ! H.2 8 Z.$Xu N.+X(.Q.9 Z. XH.2 6 D.1Xq P.",
"S.(.A.q A.9 R./.s /.8 u oXM.= . = E ;X:Xn.m.lXeXf.h.dXzXtXgXxXgXgXgX:X9X;Xu.| @.8.@.o o.V.}.t /.S.2 oXH.T.P.7 N.u T.(.u /.s 2 4X",
"L.{.t K./.B..Xt y 8 Z.}.I.A.X.D j D 8X>XwXwXkXpXg.j.tXzXpXrXeXeXaXeXy.s.0X&X8.O.6.O.o .. X(.5 0 0 R.(.Z./.A.S.{.u OXL.7 8 s }.(.",
").L.7 {.L.K.L.7 t A.1XB.3 /.A.t N b -X,XdXgXjXpXz.z.<X@XT Z H x B M b U qXqXq.O.C =   A R.i 0 q /.].4 S.T.7 (.Q.Z.T.7 u s }.L.t ",
"T.M.t L.u s q Z.7 oXL.N.N.F.8 u L c 7X,XaXrXfXtXv.v.y.a.c = * * M M k A a.t.q.O.M Z [ p.0 s u K.].t B.B.Z.9 D.8 Z.9 B.q /./.t ~.",
"{.Z.L.Z.H.T.{.8 M.S.0 K.3XS.A.K.L N 9X:Xy.>XtXtXyXpXT k x I j.x.q.@.Z F x D q.+.+  .P.L.].A.u L.N.0 ].OXS.H.A.L.R.oXu i L.t D.4X",
"T.L.0 }.E.N.}.N.I.T.6 q E.H.F.u L M s.&X-X,XaXaXkXuXC c K Y g.j.p 2.: I b Z +.+.% ~ 3X0 T.^.S.R.8 0 L.].Z.9 /.OXt (.H.S.P.7 5 [.",
"|.S.5 T.J.u r `.K.s A.].u /.N.7 ~ k 3.0.7X9X8X0XgXuXn V 1.7.j.g.g.j.g.k.M S q.+.@ ~ S.N.t L.^.u q (.F.L.L.1 L.L.N.8 R.J.s u [.~.",
"$XA.L.V.i [.N.V.'.D.N.`.(.L.M.T.L m o.6.=X;Xy.>XcXuXV V @.7., h.h.h.j.< = S q.@.h ~ M.R.[.8 ^.Q.F.I.(.R.J.V.V.lX].I.r _.H.A.'.).",
"u ].oX].r H..XZ.A.].H.t H.t oX].h X V U 9X<X*X<XgXhXD l V V C > C I I I V A D A m m $ =..XI.t R.].8 w e w { O o.i .XG.d E.T.0 /.",
"^.L.S.].J.y R.A.L.T.D.8 s L.T.S.i.~ x C t.%Xt.-XfXiXT z b b J K J K J K V K G M E U X L <X4XG.6X$XN.j o $ = o T 4 U.G.K.R.V.u s ",
"[.u t B.R.A.s T.`.t q 5 A.(.t t V.J.N $ = C 5.w.qX>XC x Z M m m m m x x x M h A 9X7XA k ; w V w w = x A +.9.w.5.j - S.oXZ.t 2 D.",
"2XZ.u t ^.(.S.s i u L.8 (.].N.N.u R.C & c A =.i.%Xy.A m C D D U R [ T R R T N E qX;XR A V & = k & = C U 6.e.e.O.@ j 0 B.t T.u P.",
"4X(.L.8 B.E.S.t 8 /.).2 E.oX(.H.W $ Z G m m G m & l m N | 9.7X:XsXkXgXjX>X;X,X*X;X8X9X=Xq.+.A M i.8.3.6.8.9.9.+.= m 6 0 T.$X8 T.",
"u ^.N.N.S.4 ].R.u L.2 A.oXM.(.7 M o Z T R C I D A D A R 8.w.8X,XsXdXsXsX,X9X;X&X7X7XqX=X+.@.n V +.3.5.8.O.+.6.| = c (.lXQ.0 7 5X",
"^.].t Q.^.V.1X8 8 2 F.}.B.L.W Q x = o.6.=X,XfXfXjXsX;X-X9X-Xw.8.T C D D S A M Y ,X,Xr.@.P C O o $ @ @ @ @ O + + X . N.7 7 A.}.T.",
").D.7 (.A.S.A.u u L.1Xi 1 ^.* X G R q.r.=X,XaXrXdXsX*Xy.%X=X5.o.M j z m N b h n u.s.} { b V  .o.W &.&.&.&...&.&.&.~ u t V.[.F.s ",
"~.Z.u N.t N.u D.8 ).D.S.H.S.M * | e.0X*Xw.O.C n b = A N Z Z b A S A m A e.8.Y b & % % %   N u D.^.i K.G.A.u A.t Z.i Z.t R.H.s ).",
"{.A.F.H.L.R.|.8 F.D.8 A.3XV.K $ q.e.8Xs.6.{ m m M K G G G M V Z n A M A 6.5.= V ! ~ ~  .; =.d L.u 8 '.2Xu D.F.^.L.OXu Z.H.8 q 3X",
"~.L.4 [.P.s ~.B.T.L.7 N.H.T.M $ 7X@X$ h c & h m =X7X+.| | 6.+.O.A b + o o X   V 9 T.oX7 S./.S.T.8 t H.R.D.3 (.}.8 J.H.L.R.0 8 '.",
"1XD.3 J.H.A.y R.L.u S.OXM.^.M = ,X#X> T E ~ T { qXqX0.0.0.3.q.8.A C *.=.*.*.! p.7 A.L.A.u S.E.u t [.H.L./.2 H.S.d r R.J.t f 2XP.",
").S.T.H.s OXC.A.E.I.N.R.> ; k > uXzXjXjXhXzXhXhXdXdX*Xs.2.} 8.5.&  ./.T.N.R.Q.T.S.T.M.T.OX4 T.R.L.D./.S.J.H.I.N.}.'.r R.L.K.P.}.",
"s (.]. Xu Z..XN.N.].S.q & o b E aXgXfXgXgXgXgXgXgXdX:Xu.2.3.q.+.% ..I.(.u A.u L.oX].R.3  XU.t R.E.8 L.t T. X XV.r OXK.i ].H.8 ).",
"].D.A.'.T.t L.Z.R.H.S.0 b = o.6.aXfXdXdXdXdXdXdXjXdX&X&X>Xs.8.3.@ &.E.u F.4 B.R.S.T.R.t S.M.T.R.N.A.u Z.T.D.R.R.t H.A.R.R.Z.t s ",
" Xt t t (.S.M.T.^.q q 7 l b 5.r.dXdXdXdXdXdXdXdXxXpX>X%X9Xs.q.O.O  .S.u 9 3 `.H.8 9 E.I.t D.].N.t 8 8 }.B.0 t E.L.s L.].t s 7 F.",
"5XA.A.8 R.].H.8 q Z.Q.0 l n u.>XdXdXdXdXdXdXdXdXxXhX>Xu.3.2.9.5.@ ..t Q.A.9 5XI.s 9 R.].L.6 s u ^.Z.u 5XS.B.7 E.[.L.6 u u (.u T.",
"|.].L.4 N.T.L.s 8 ).Q.7 j ; =X,XrXrXdXdXdXdXdXdXsXsX*Xu.| 3.q.8.@ ..D.}.N.M.OX(.).q 9 I.S.q s K.|.8 S.OX(./.7 t I.S.s 0 /.).7 /.",
"t (.t A.L.9 [.R.N.S.1 P.k ; 9X,X*X,XkXxXcXxXcXtX#X#X<X-X9.9.e.5.@ ..F.N.1 oXS.Z.(.7 K.M.I.}.9 L.q 7 1XN.T.S.9 S.4 E.).s F.6 q 3X",
").^.t ^./.S.].3 8 4 /.].l = t.7Xt.-XiXuXuXuXuXiX%Xt.-Xt.} | 8.O.@ ..q 9 }.K.B./.Z.S.1Xu oXS.3 7 N.[.S.S.(.u T.}.B. X9 7 7 F.oXF.",
").A.7 (.N.Z.Z.u t /. X9 b = N I v I I I C C n n n n n A C S A A + &.t ].}.0 8 L.7 R.S.u Z.N.Z.B.}.T.4 N.F.2 /.F.Z.B.N.u L.oXV.Z.",
").B.N.A.u S.D.N.8 ^.B.D.V k M M G K H H F F x x M x m M M Z B V # *.s /.u P.T.F.N.B.t F.B.B.q D.T.u T.L.A.N.s s F.A.Z.q Q.S.B.{.",
"^.i D.Q.R.I.OX8 P.D.3 u b x ( $.-.;.nXnX-.-.:.;.>.;.` ' ( ( ( / + *.R.N.8 H.5Xu d H.[.K.2XK.u L.9 4 {.4Xu A.L.}.S.4Xu D.H.7 8 4X",
"~.L.5 }.L.r H.L.T.S.q V.= l ( $.>.<.mXmX<.<.<.>.>.,._ _ $._ ` ) + &.L.u Z.T.L.F.8 L.].r u ^.L.L.q Z.S.^.F.5 /./.8 B.L.P.L.8 S.'.",
"2XD.0 I.G.K.8 (.Q.u B.+Xo X N P <.MXmXmXbXvX>.:.) ( Z A ) _ _ ) + &.S.u /.].L.R.7 K.V.G.B.i `.G.u ].I.T.^.3 F.A.S.B.C._.A.d 2XP.",
"~.T.Y.H.u |.I.N.T.R.B.H. .T N K nXmXmXmXmXbX>.:.( ( b A _ _ _ ) # X.^.E.t T.L.H.L.R.G.G.XXr G.U.R.N./.Z.I.R.H.u (.].t J.T.H.B.}.",
"d E.`.1XA.i +XN.i `.L.8 H.t N z vXmXmXmXMXnX_ ' ` _ V Z ' _ $.) # X.T.E.i B.u H.[.`.(.2 ].R.t R.R.t F.9 R.(.}.I.4 OXD.t `.I.8 ^.",
"}.V.B.R.T.t S.L.].S.A.7 N.(.I z bXMXmXmXMX<.] ( ( ( V Z ( _ _ ) # X.^.t D.7 B.R.S.S.R.N.A.H.'.^.u s 8 T.T.A.T.R.i F.S.].H.t t s ",
"].i 0 t E.I.N.K.R.q q 8 I.].C x bXMXmXMXMXnX_ / Z Z M Z _ _ _ ) o X.S.u q 8  XH.7 4 (.R.u D.].u N.9 8 oXB.7 9 ].R.u D.R.9 u 8 K.",
"5XK.D.8 L.].S.6 8 A.).8 `. Xv z nXMXmXnXMX<.] ( A Z Z S _ _ _ ) # X.9 /.K.8 5XR.S.9 L.].L.2 q u }.N.N.3XT.S.7 R. XH.5 8 u {.u L.",
"^.}.L.7 i B.R.L.8 ).F.q  XT.A j bXMXmXbX>.:.` / b A ' _ ) ) ` ) # X.D.(.0 F.].R.{.9 8 H.S.S.u Q.).2 R.oX(./.7 9 S.L.F.9 /.Q.2 |.",
"i ].u F.L.9  XL.s u 3 (.R.M.S j vXMXMXbX>.:._ ^ V C ] ` _ ] _ / + X.A.y 7 1XB.S.].7 R.t R.[.t Z.q u OXt T.S.N.T.9 ].(.0 A.8 Z.4X",
"{./.q (.R.L.R.2 y 0 ).R.! m * V bXMXMXbX>.;._ ) V A ( _ _ ( A B   T y u OXZ.B.(.A.H.[.N.].N.8 4 Z.OXu S.^.t Q.}.B.`.4 q 0 T.].D.",
"R.N.8 T.u Z.t d 0 }.).9 O + M ^ vXmXnXvX>.;._ ^ V Z ] _ ' ( b n U i.u 1XR.8 8 P.3 D.A.u s u s D. XV.9 N.D.5 P.u i t N.i Q.).u D.",
"{.A.A.u d L.L.u t T.u L.v b %.$.>.<.<.>.vX>.` / b Z ' _ ' ] # ~ S.u Z.Q.s T.].D.d u B.L.L.Z.u D.F.u R.E.D.A.u Z.L.L.u 9 L.Z.D.1X",
"^.A.s (.].H.OX8 L.H.2 q b z ( %.-.-.-.-.,.-.) / Z S ( ( ' ( k ! (.4 /.u 5 L.5Xq s L.OXS.1XL.s T.q 8 E.OXu s R.1XD.2XN.D.T.3 7 OX",
"L.P.7 ^.P.y A.T.S.Z.u T.Z & Z Z A K K A G Z S M A Z Z Z V Z A A O X.A.u L.T.A.L.8 L./.0 q /.Q.S.8 L.L.L.P.2 R.R.0 u L.P.D.t H.J.",
"4X~.D.'.~.{.A.{.}.K.P.3XC V C C C A A A D D D I D D D A S D D S .  .~.K.].[./.{.s /.J.~.^.S.oX~.K.1X^.).{.d ^.~.).L.~.}.!.L.3X)."
};
