/* XPM */
static char *_03cd745e9e4475ade326b574facbde8itxOZ5IZzvTC35R4[] = {
/* columns rows colors chars-per-pixel */
"64 64 238 2 ",
"   c #000A25",
".  c #01142D",
"X  c #001433",
"o  c #021B33",
"O  c #071C36",
"+  c #041D3A",
"@  c #091F3A",
"#  c #0B2A2D",
"$  c #012136",
"%  c #0B2434",
"&  c #04213C",
"*  c #0B243C",
"=  c #0E2A3C",
"-  c #16273C",
";  c #132B3C",
":  c #18353A",
">  c #19333D",
",  c #262C39",
"<  c #26353C",
"1  c #76350C",
"2  c #773114",
"3  c #2D6908",
"4  c #346D0C",
"5  c #37710D",
"6  c #39720E",
"7  c #366E12",
"8  c #386F15",
"9  c #377110",
"0  c #3C7414",
"q  c #3F7915",
"w  c #3D761A",
"e  c #3F781A",
"r  c #244539",
"t  c #2D5036",
"y  c #3B6C2A",
"u  c #427817",
"i  c #427B16",
"p  c #40761B",
"a  c #437C1B",
"s  c #51583D",
"d  c #7B592A",
"f  c #457D21",
"g  c #497E23",
"h  c #497E29",
"j  c #091E45",
"k  c #052341",
"l  c #0C2543",
"z  c #0D2A43",
"x  c #082849",
"c  c #0D2B4B",
"v  c #122643",
"b  c #1B2543",
"n  c #142C44",
"m  c #1B2D45",
"M  c #12264B",
"N  c #142C4B",
"B  c #1A2E4A",
"V  c #0C3449",
"C  c #153146",
"Z  c #1B3345",
"A  c #15334B",
"S  c #1B334B",
"D  c #19394B",
"F  c #0A2B51",
"G  c #152B52",
"H  c #073050",
"J  c #0F3251",
"K  c #133352",
"L  c #1C3252",
"P  c #1B3957",
"I  c #242D45",
"U  c #223A46",
"Y  c #253844",
"T  c #21344C",
"R  c #243C4C",
"E  c #293D4A",
"W  c #343B4B",
"Q  c #222C54",
"!  c #243C53",
"~  c #273B56",
"^  c #0D4655",
"/  c #124C56",
"(  c #134D5A",
")  c #0E5156",
"_  c #0D545C",
"`  c #0C595D",
"'  c #11525B",
"]  c #125459",
"[  c #284547",
"{  c #324A49",
"}  c #3C554B",
"|  c #3A564C",
" . c #294157",
".. c #2C445C",
"X. c #34435C",
"o. c #344C58",
"O. c #3C5554",
"+. c #3E5953",
"@. c #3B575C",
"#. c #39634E",
"$. c #0D5863",
"%. c #165262",
"&. c #2D4361",
"*. c #334762",
"=. c #3A5565",
"-. c #0C646C",
";. c #09696E",
":. c #0C6672",
">. c #096D75",
",. c #116870",
"<. c #067579",
"1. c #396266",
"2. c #465949",
"3. c #445C4D",
"4. c #575649",
"5. c #415656",
"6. c #445C54",
"7. c #495D54",
"8. c #445C5A",
"9. c #485A58",
"0. c #4B634C",
"q. c #456153",
"w. c #4C6453",
"e. c #49635B",
"r. c #536D50",
"t. c #5E7A59",
"y. c #667E56",
"u. c #637E5B",
"i. c #455765",
"p. c #525C72",
"a. c #597065",
"s. c #657D63",
"d. c #6A7F65",
"f. c #862A04",
"g. c #8C2C01",
"h. c #972D00",
"j. c #863406",
"k. c #943404",
"l. c #873916",
"z. c #A03302",
"x. c #87551A",
"c. c #915118",
"v. c #895825",
"b. c #886925",
"n. c #986424",
"m. c #9E6C20",
"M. c #977539",
"N. c #927E48",
"B. c #47801D",
"V. c #4C861B",
"C. c #4A831D",
"Z. c #528B1F",
"A. c #478022",
"S. c #4B8423",
"D. c #4F8824",
"F. c #4D842A",
"G. c #4F8829",
"H. c #508725",
"J. c #528B25",
"K. c #51862B",
"L. c #538C2B",
"P. c #598F2D",
"I. c #569126",
"U. c #5B9626",
"Y. c #57902B",
"T. c #5A942C",
"R. c #5E992C",
"E. c #538533",
"W. c #568D32",
"Q. c #5A8E33",
"!. c #579031",
"~. c #5C9433",
"^. c #5F9932",
"/. c #5E9539",
"(. c #5F9838",
"). c #61972F",
"_. c #629C2D",
"`. c #619635",
"'. c #629B34",
"]. c #689F37",
"[. c #61963A",
"{. c #649C3A",
"}. c #699E3B",
"|. c #64A02E",
" X c #66A134",
".X c #6AA336",
"XX c #67A03B",
"oX c #6AA33C",
"OX c #6EA93B",
"+X c #5D8B5A",
"@X c #679A44",
"#X c #6A934C",
"$X c #668657",
"%X c #6A8655",
"&X c #6C8A55",
"*X c #65815B",
"=X c #6A845D",
"-X c #6D895B",
";X c #738B56",
":X c #74865A",
">X c #738C5B",
",X c #769259",
"<X c #6CA342",
"1X c #6CA542",
"2X c #73AA47",
"3X c #73AC44",
"4X c #78B248",
"5X c #76A553",
"6X c #658462",
"7X c #6B8462",
"8X c #6E8B63",
"9X c #728B61",
"0X c #769163",
"qX c #7DA166",
"wX c #94864A",
"eX c #8A995D",
"rX c #8CA35D",
"tX c #96A65C",
"yX c #8B9C64",
"uX c #879B68",
"iX c #959C65",
"pX c #8DA263",
"aX c #8BA468",
"sX c #94A463",
"dX c #95A963",
"fX c #9BAB64",
"gX c #95A56B",
"hX c #97AA69",
"jX c #99B267",
"kX c #95AC73",
"lX c #91B274",
"zX c #A2AC69",
"xX c #A1B065",
"cX c #087C81",
"vX c #038483",
"bX c #098282",
"nX c #028985",
"mX c #048D8A",
/* pixels */
"Q.}.}.`.A.{.].I.P.`.E.E.[.J.}.oX!.A.1X^.I.~.oXS.~.~.L.oXXX~.g 1XT.E./.}.A./.Q.~.oX_.W.E.1XP.L.).'.S.[.K.'.oX`.F.T.1XG.P.^.!.F.1X",
"a P.P.OXJ.q ].a V.`.L.w J.a T.P.OXB.S.|.B.D.U.D.w a S.'.T.OXw L.R.p I.T.A.S.a J.U.R.'.0 (.L.i _.Z.a F.a L.T..XT.6 _.G.B.~.L.u S.",
"].F.g Z.U.B.S.L.].V.a 0 B.^.a a Z.I.B.S.I.^.B.S.4 J.'.a C.I.L.B.V.R./.w #.# B C * m I.V.r r |.I.a A.0 I.J.C.S.T.C.C.K.}.J.p u f ",
"].a p u R.T.A.F.P.u a w T.^.u i S.U.Z.B.W.G.a e 0 '.J.u q @XT.V.S.U.F.A.! . z z o l R.T.v X U.u F.0Xp .Xi 0 0 '.`.g S.I.0 a 0 Y.",
"4XL.K.0 V.'.K.0 9 G.(.0 ^.XX!.J.a J.R.B.y w !.~.q OX^.Y.C . S ! r L [ | Z B C A C m t { C A L y #.t C.4XU.L.0 F.'.L.4 0 S.1Xp J.",
"Y.'.S.q B.B.!.!.p (.A.q  XD.{.a q S.u R.!.A./.8 S.'.L.XXo.V l & l k k l A S S A A S l * C G x & X - R.U.T.~.0 a B.J.W.0 ~.L.4 1X",
"F.[.p G.I.u oXD.a w e '.T.C.(.9 !.J.C.oXe B.8 e XXS.S.(.q (...& N N N A c A A A J A c M A K N N S L v t : T C.~.u |.I.q w q Y.oX",
"`.L.q (.P.L.Y.9 e e oXJ.6 !.J.B.'.S.^.D.5 q A.2XB.q ^.S.H.[. .& S S S S D D S L I < E D L B A K L G v ; o Z ^.^.S.T.q p q ~.~.f ",
"Y.C.0 L.p f p g q XX~.q q L.q u G.B.a w G.0 XXL.q q P.8 C.C...& @.6.9.5.5.O.V M 2 k.M.eXL H +.#.N n +.+.S v . - B.q g a ~.^.p L.",
"}.S.D.C.S.L.`.u e Y.e L.1XL.A.D.S.D.T.W.e B.K.q !.2XS.f J.V. .& 3.0.6.7.e.7.S < f.h.m.N.< - s 0.T > 3.e.B B * ! L.^.a q D.B.D.1X",
"W.F.a [.).Z.oXu !.L.9 0 oXG.S.f XXL.Y.XX6 ~.G.7 B.OXB.F.o.* G c } w.O.3.u.y.d c.g.f.v.n.k.j.j.1 2.=.8.@.* ! ~.1XA.oXa J.Y.0 7 oX",
"/.J.4 ~.L.u i ).G.f S.R.i /.F.0 T.G.e C.R.A.a K.R.B.~.f K X S U } e.9.7.>X:Xb.n.l.j.x.c.j.j.g.g.4.9.7.3.% ~ !.Y.p u U.L.A.a !.P.",
"1XS.S.J.F.'.i I.'.S.S. XI.T.f K.Z.G.'.6 Y.~.S.S.'.Y.~.q ~ @ O.8.5.6.7X;XpXgXdXrXN.M.k.g.2.2.j.g.h.k.c.b.% P K.C.`.J.C.'.J.A.oX~.",
"g '.'.T.w U._.a V.R.S.B.I.q ^. XR.6 ^.R.A.I.^.u Z.D.C.^.~ % 5.7.5.7.6X;XrXdXtXtXwXN.l.2 5.+.l.k.j.f.x.v.v P T.a V..XS.a ).Y.p '.",
"P.I.J.oXJ.q '.B.S.T.G.0 C.D.T.J.OXC.S.~.B.I.I.G.q B.D.~...& O.q.9.7.*X;XiXdXtXiXeX7XY b A Z v.n.Y F B - l M > { 7 '.H.V.U.H.a A.",
"XXB.a V.U.B.C.L.1XA.f 4 C.'.i B.S.I.B.F.I.^.a f 4 J.R.a ! & O.q.O.6.u.;XpXsXtXiX9Xs.L F x C v.n.W c D D ! Y X n S.a J. XZ.p 8 K.",
".Xa f q ~.U.S.f F.p A.0 ~.'.i i S.U.J.F.S.C.f A.w oXi.z n ; @.e.b = u.>XpXsXhXaX2.} m j V D d c.f.1 iXgXjXsX; c 5XC.f G.w F.w W.",
"2X~.Y.0 F.R.F.e 9 F./.q ^.'.~.J.q J.U.B.e 0 !.!.0 OX!   S D +.6.< Z u.;XpXgXsXgXr.2. .! > , d n.k.k.iXkXrXuX: r '.L.4 0 F.1Xe P.",
"F.'.C.u S.q U.~.f /.0 a oXC.{.q i V.B.(.!.A.W.4 L.^.o.o 5.8.@.6.u.7X8X>XfXxXdXfXtXtXkXgXj.g.eXtXM.M.;X-XE - . = a I.^.p ~.f 4 2X",
"L.[.p L.!.B..XB.e 0 A.'.J.D.[.6 ~.D.V.oX0 p 9 G. XV.X.o @.6.5.5.$X9Xt.y.uXpXyXeXeXgXhXtXk.g.iXlXwXwX:Xy.S l Z X.a oXK.0 0 a {.(.",
"/.L.0 (.P.L.D.0 p S.oXC.4 ~.S.p '.D.T.S.0 u G.2Xu 0 S   : Z O.q.>X0XE n C n H V D S +XeXx.x.yXhXfXdX>X7Xn B /.!.S.I.q a f @XK.p ",
"P.B.q D.a f w A.0 XXL.B.C.F.q a G.f e e F.6 XXF.a S.p.E J M O.q.t.a.C x N A > , v v e.*Xb.b.sXhXpXyX>X6Xv L S.q S.w B.e ~.~.i !.",
"[.C.L.S.L.Y.(.0 V.S.w L.3XD.A.L.K.D.T.~.0 D.D.0 !.4XS.f ! + +.q.S n F K @.e.l.k.I c = S iXfXtXtX:Xy.;X8XB L F.L.Y.{.i C.J.p A.3X",
"P.G.w XXR.A.{.u Y.L.9 w R.J.G.a XXJ.C.XXe !.D.0 A.(.B.F...& +.q.S v I < 2.s k.h.Y K z Z iXjXsXtX:X=X%Xd.n L ~.oXu ^.J.J.T.4 0 oX",
"}.D.4 I.I.a u _.J.f S.'.i ~.A.0 U.J.i A._.C.a J.'.C.^.w ~ j +.q.A m l.h.j.h.h.k.7.1.B Z yXfX>X7X7X=X0.+.l P L.J.a q `.J.a a ].Q.",
"@XG.I.D.p .Xa Z.`.K.C.).^.L.lXI.V.F.OX0 L.`.L.f T.T.L.a ~ @ +.#.A > 2 k.j.j.j.1 2.1.C C iXtX;X*X-X$X3.@.M ! V.B.'.U.u '.J.F.'.`.",
"A.(.XX^.u J..XA.A.'.J.i J.u o.O t r t } f V.|.B.S.S.i.% M M S S A C I I I Z , Z C Z v D aXxX;X&X,X8XU n X j {.C.i  XH.a R.T.w Q.",
"Y.L.D.'.L.p T.S.K.P.J.0 f L.R X * = o * g 5X1XJ.#X#XL X U E L G A C K J K K K H C n c S uXhX%Xt.*Xt.m M ! i.^.R.0 I.H.K.R.S.u g ",
".Xf p V.T.S.A.I._.i w 7 : * O.7.e.+.S M = t r C r : x N 6X8XS j N c c c M M N M B N c Z :X0Xe.5.D ; % A S.i B.R.D.f D. XS.p 5 F.",
"1Xf a i ~.R.S.f C.a L.q + O 5.w.e.+.U m ; z l l = = A [ -X0XE B D R R U R R U T Z Z M D t.=X8.=.S v * Z D.i 6 ~.'.G.w S.q L.a L.",
"2X~.L.q C.U.J.a 0 ~./.5 M - } e.8.8.6.3.w.8.B A +.q.*X8X7X=X-X>X:X9XhXjXjXhX&X6X8.O.B N ; = M G M M N B = W 0 i ^.L.w w Y.{.q Y.",
"a ~.C.a S.q '.T.a L.qXS.M = | 5.+.5.8.6.6.+.n B @.+.*X0X7X6X%X-X=X>XaXaXaXpX>X7Xw.8.R S S S T Z T ! T A X C q S.q U.(.e Y.w 5 4X",
"!.(.i !.~.S.1Xu 0 5 K.}.. X + + O O @ + % O o o C L +.0.,X>XE B S S D D Z U 8.w.=X8X-X&XgXhXtXhX,X*X8.o.C N Q W a 1XV.0 7 F.XXY.",
"`.S.0 (.D.S.S.u e L.1Xa ~ &.&.&.*.&.&.&.~ X.o.X.C B { 3.u.*Xm j n G M l l N o.6.t.$X$X$XaXsXeXpX>X*Xr.6.R G X % S.H.i i C.'.F.f ",
"~.f i A.q V.a F.0 (.D.S.J.S.e B.g a f a J.u '.a Z   & k & * n Z 6.e.A M C S S S B N A B = n B > +.w.&X>Xe.{ - S H.a C.u Y.I.a [.",
"[.S.G.D.I.Y.}.9 G.G.q S.3XD.B.L.Y.K.'.'.4 L.F.0 =.m  .~ ~ L n n +.8.D G B C C C L G G N A N F M { +.6X=Xr.6.* K L.oXp S.K.6 p 3X",
"!.L.6 oXT.w W.C.Y.L.q u J.I.G.e }.C.a `.a T.F.w Z.J.G.A.S.XXC   X o X X n S O.5.+.} } } 6X6XN j * l x - t.6X& N u I.L.K.U.0 0 `.",
"1XF.6 K.L.F.u '.L.p S.OXB.(.S.e I.L.a u '.D.a L.XXV.^.w B.I.p.! *.*.=.=.S S +.e.3.2.0.0.0X>X{ ~ E E U < &X-X- B g u I.J.a h 2XT.",
"^.J.U.J.f XXZ.S.~.I.B.Y.R.S.G.U.J.C.OXi S.R.I.p T.~.H.S.Y.V.G.3Xq G.T.T...* +.e.} 2.s.-XgXdXgXgXkXgXgXgXkXuXU l > < a `.L.H.P.{.",
"f '.'.'.a C..XB.B.|.G.e J.q {.'..X6 L..Xa F. XB.u A.S.oX^.{.5 R._.e L.^...& +.6.7.2.*X;XtXgXfXfXhXfXzXfXfXrXE ; O * H.a '.L.0 ~.",
"`.H.S.~.U.p L.V.Y.D.G.0 i Y.J.V.'.J.u J.F.T.S.J.7 B.T.D.D.|.A.B.D.L.R.a ..@ O.6.6X>X%X%XsXfXsXgXsXsXsXsXfXrX7.o.; ; D.T.Y.S.i A.",
" Xp p u T.J.B.I.^.i e 0 L.^.0 u C.T.C.S.I.U.u w 9 T.Y.0 q I.U.B.G.^.D.a  .@ O.q.s.8X$X%XiXfXsXsXsXsXsXsXfXeXw.5.n n K.'.a a 9 G.",
"4XC.F.q T.{.J.0 w A.W.w '.'.S.S.C.T.T.S.f w F.L.0 3XR.C.e L.R.I.e A.e !...@ 5.w.2.2.u.-XgXzXsXsXsXsXsXsXdXsX>Xu.> z 9 p a !.a Y.",
"].{.L.6 a Y.L.f w /.!.5 ^.'.{.S.6 V.L.J.f a (.A.q  X^.(.A.w G.D.B.F.S.{...* 5.8.} 5.u.;XuXgXsXsXsXsXsXsXrXeX>X*X> l f w (.(.5 (.",
"i (.i C.L.q oXY.a S.4 I.oXq (.0 D.G.i XXK.D.A.3 ^.T.C.^.4 L.A.V.XXf G.B...@ 8.e.q.7.=X,X&X,XhXxXzXfXzXjX;X%X>X-X> l (.f G.7 e 3X",
"^.^.p ~.T.J.{.5 q 5 T.{.u I.~.i (.D.T.(.4 q 0 (.T.i T.Y.B.{.A.{.Y.4 q q ..O O.6.} } t.7Xt.%XuXyXyXyXyXyXu.t.s.u.; z q 0 7 G.XXL.",
"/.S.0 ~.a A.B.B.q ~.XXq 5 !.p a ~.i S.B.B.q (.@Xq 5 ~.e S.!.a S.a S.p {...& S N S Z m B - Z m Z Z S I I I B I m = C a a G.1XV.A.",
"Q.C.B.S.B.G.S.B.0 ~.S.S.(.G.a A.A.S.S.A.A.w (.a G.~.D.a A.B.D.C.B.B.a ^.*.& C A A K N x c v c c J F H F J A G N * C f q !.D.B.'.",
"/.g K.Y.T.T.OX0 L.F.5 a 4XV.F.G.~.Y.(.{.5 Y.S.5 C.4XB.A.F.'.J..XT.0 Y.B.*.$ / ) ( ( ' _ ;.>.:.>.:.:.<.vX>.-.$.( c ; a H.J.0 i 1X",
"T.K.8 '.L.q F.J.P.J.e V.V.!.F.w '.S.i Y.G.D.S.B.D.V.L.A.A.{.u B.~.D.K.a *.$ ) ` _ $._ ` ,.>.>.>.>.<.nXmX<.,.$.( z n Y.Y.K.u S.`.",
"1XJ.w I.L.H.q R.P.f S.OXA./.f a I.G.D.6 '.D.e Y.oXD.(.e A.L.L.J.0 ^.G.a &.+ ) _ _ ' S S ] ` :.>.<.nXnXnXnXcXP B X $ H.).S.g 1XP.",
"Q.I.U.H.p ].I.B.L.U.B.J.(.S.J.U.D.a OXV.V.U.~.q Y.T.V.D.U.G.B.OXu C.R.T.X.$ / _ _ ' m n / ( :.>.vXnXnXnXmXcXK B T  .a Z.I.L.C.{.",
"h R._.1XA.C.OXS.B.R.J.q D.u _.R.oXq J..Xi C.'.F.q B.D.XXR..X6 T.'.e I.R.X.$ ) _ _ ( A A _ $.( _ cXmXvXnXmXbXx B q .XF.a _.U.0 Y.",
"}.S.C.T.U.u D.K.'.S.S.0 B.^.S.B.I.I.i G.L.[.B.G.4 S.[.A.V.U.D.a D.I.(.i X.$ ) $._ ( A A ( ' / ' <.mXnXnXnXvXl T a D.S.(.L.u p f ",
"'.a p i ^.I.f K.T.w w 0 I.R.e a S.U.S.A.Y.Y.a e 0 ^.I.0 e I.I.B.S.R.S.i X.+ ) _ ` _ A B C A / ' bXmXnXnXmXvXk Z T.p F.U.u a 0 H.",
"4XS.F.6 L.'.J.9 q A./.q ^. XK.G.A.Y.~.S.p 0 L.Y.0 3X^.G.B.D.~.Y.0 a p ~.X.o ) ` _ _ V A S S / _ bXnXbXmXmXvXz m  XL.9 q a [.a L.",
"^.{.F.0 a C.T.J.q /.L.e '.U.oXa q S.V.I.L.i (.a B.XX~.XXi q D.C.D.S.F.'.X.$ ) ` ' _ _ ( S C / ` :.<.vXnXnXvXl B J.J.K.u ~.~.4 oX",
"a '.a D.L.p  XL.f a 4 ~.T.B.'.0 L.D.B..XA.F.p 4  XJ.B.(.5 !.A.J.1Xe S.e X.+ / ` ' ' _ ' Z n / ) :.>.cXmXmXvX* B q '.~.w A.0 B.1X",
"`.!.a '.T.I.T.5 e 0 {.!.q T.!.a (.D.~.I.4 w q .XJ.p ~.K.S.{.A.'.D.4 e a S   V C ( _ _ ( A C / _ -.>.vXmXmXvXV b n T u u w P.{.F.",
"Y.S.0 Y.a A.p g w {.(.q q L.w a L.B.f a S.q XX~.0 e ~.9 S.K.B.a e S.i 1Xp.U m n ) _ ) ( D n / _ ;.<.cXvXmX<.^ N + + a a Q.'.p F.",
"[.F.S.a S.L.K.a e Y.u L.XXG.A.S.B.F.L.K.a a Y.p Y.{.S.B.S.C.J.K.F.u f Y.a Y.~ $ ' %.` _ C S ' ` >.cX>.>.<.<.$.%.z n A.q L.A.G.<X",
"~.S.B.`.`.I.OX9 I.J.7 w 3XS.A.S.'.L.T.XX8 !.J.9 a 4Xi C.F.oXD.'.^.0 !.C.7 K.~ * ( ' ( ( A C / _ -.:.$.:.-.-.%.( z m a F.I.9 8 oX",
"L.Y.7 ~.L.p S.L.D.S.C.P.C.Y.D.0 ~.S.u J.Y.F.a S.W.C.Y.A.V.^.e q I.Y.F.u *.% S S A C C B A A C C K S L K S A A C * C Y.L.H.p D.J.",
"2XW.F.`.Q.`.F.[.{.F.!.3XW.[.G.K.`.Q.[.a }./.E.T.oX!.{.F.Q.W.Q./.f oXQ.D. .. S D D D S D R D T T D D S S S Z D Z v D Q.}.E.Y.2X[."
};
